<?xml version="1.0" encoding="UTF-8" standalone="no"?>
<!-- Created with Inkscape (http://www.inkscape.org/) -->

<svg
   width="143.91614mm"
   height="100.53152mm"
   viewBox="0 0 143.91614 100.53153"
   version="1.1"
   id="svg1770"
   inkscape:version="1.3.2 (1:1.3.2+202311252150+091e20ef0f)"
   sodipodi:docname="logo_nero_ez.svg"
   inkscape:export-filename="logo_nero_ez.svg"
   inkscape:export-xdpi="96"
   inkscape:export-ydpi="96"
   xmlns:inkscape="http://www.inkscape.org/namespaces/inkscape"
   xmlns:sodipodi="http://sodipodi.sourceforge.net/DTD/sodipodi-0.dtd"
   xmlns="http://www.w3.org/2000/svg"
   xmlns:svg="http://www.w3.org/2000/svg">
  <sodipodi:namedview
     id="namedview1772"
     pagecolor="#ffffff"
     bordercolor="#666666"
     borderopacity="1.0"
     inkscape:pageshadow="2"
     inkscape:pageopacity="0.0"
     inkscape:pagecheckerboard="0"
     inkscape:document-units="mm"
     showgrid="false"
     inkscape:zoom="0.69664703"
     inkscape:cx="134.93203"
     inkscape:cy="183.73724"
     inkscape:window-width="1850"
     inkscape:window-height="1016"
     inkscape:window-x="70"
     inkscape:window-y="27"
     inkscape:window-maximized="1"
     inkscape:current-layer="layer1"
     inkscape:showpageshadow="2"
     inkscape:deskcolor="#d1d1d1" />
  <defs
     id="defs1767">
    <rect
       x="202.12048"
       y="362.65454"
       width="711.50903"
       height="75.650536"
       id="rect1" />
  </defs>
  <g
     inkscape:label="Layer 1"
     inkscape:groupmode="layer"
     id="layer1"
     transform="translate(-2.102035,-90.790022)">
    <path
       d="m 54.692427,128.43741 0.351366,0.0303 c 0.883003,-10.18117 9.162698,-17.87455 18.82634,-17.87314 0.51682,0 1.037167,0.0219 1.5621,0.067 4.876801,0.41699 9.147176,2.7298 12.204348,6.18773 3.056467,3.45828 4.894087,8.05885 4.894087,13.04431 -3.53e-4,0.58384 -0.0254,1.17369 -0.0762,1.76847 -0.883003,10.18046 -9.163404,17.87349 -18.827046,17.87208 -0.516819,0 -1.038578,-0.0222 -1.561747,-0.0667 -4.877153,-0.41663 -9.147881,-2.72979 -12.205054,-6.18807 -3.056467,-3.45828 -4.894439,-8.05921 -4.894439,-13.04431 3.53e-4,-0.58456 0.02469,-1.17405 0.07761,-1.76672 l -0.351366,-0.031 -0.35172,-0.0314 c -0.05433,0.61419 -0.08008,1.22449 -0.07973,1.82916 0,5.15972 1.902178,9.9261 5.070828,13.51174 3.168298,3.58528 7.608359,5.99122 12.673896,6.42373 0.54363,0.0459 1.084439,0.0688 1.621719,0.0688 10.047112,-10e-4 18.61679,-7.98477 19.530132,-18.51695 0.05221,-0.61454 0.07867,-1.22449 0.07832,-1.8288 0,-5.15973 -1.901825,-9.92646 -5.070476,-13.51139 -3.167944,-3.58528 -7.608006,-5.99158 -12.672837,-6.42373 -0.544689,-0.0469 -1.086202,-0.0695 -1.622425,-0.0695 -10.047111,0.002 -18.616437,7.98548 -19.529426,18.51766 l 0.35172,0.0307"
       style="fill:#f04624;fill-opacity:1;fill-rule:nonzero;stroke:none;stroke-width:0.0352778"
       id="path88"
       inkscape:export-filename="/home/sime/Downloads/logo_nero.png"
       inkscape:export-xdpi="300"
       inkscape:export-ydpi="300" />
    <path
       d="m 53.630213,130.77174 0.352425,-0.0138 c -0.0095,-0.24518 -0.01446,-0.4893 -0.01446,-0.73236 -3.53e-4,-10.4193 8.377061,-19.04965 19.048943,-19.4243 0.240594,-0.008 0.479777,-0.0131 0.718255,-0.0131 10.601326,0 19.386199,8.27335 19.780251,18.7826 0.0095,0.24448 0.01341,0.4886 0.01376,0.73272 0,10.41859 -8.37812,19.04894 -19.04859,19.42465 -0.239889,0.008 -0.479778,0.0123 -0.718256,0.0123 -10.601678,0 -19.387257,-8.2737 -19.779898,-18.78189 l -0.352425,0.013 -0.352778,0.013 c 0.409928,10.89731 9.511595,19.46134 20.485101,19.46134 0.246592,0 0.494595,-0.004 0.743303,-0.0127 11.043356,-0.3884 19.728393,-9.32356 19.728746,-20.12985 0,-0.25188 -0.0042,-0.50483 -0.01376,-0.75918 -0.411339,-10.89801 -9.5123,-19.46169 -20.485454,-19.46169 -0.246944,0 -0.494594,0.005 -0.74295,0.0134 -11.04512,0.38771 -19.729098,9.32286 -19.729451,20.12951 -3.53e-4,0.25223 0.0049,0.50553 0.01446,0.75988 l 0.352778,-0.0138"
       style="fill:#f04624;fill-opacity:1;fill-rule:nonzero;stroke:none;stroke-width:0.0352778"
       id="path90"
       inkscape:export-filename="/home/sime/Downloads/logo_nero.png"
       inkscape:export-xdpi="300"
       inkscape:export-ydpi="300" />
    <path
       d="m 52.819882,133.21861 0.347486,-0.0593 c -0.174978,-1.03258 -0.26035,-2.05881 -0.260703,-3.07164 -0.0014,-9.39482 7.299679,-17.70309 17.575038,-19.25179 1.124655,-0.16933 2.24155,-0.25153 3.34398,-0.25188 5.029201,0 9.752895,1.70709 13.419668,4.6094 3.666772,2.903 6.274153,6.99558 7.085542,11.77642 0.174625,1.03259 0.259292,2.05846 0.259644,3.07129 0.0014,9.39447 -7.300736,17.70274 -17.574331,19.25249 -1.124656,0.16934 -2.242256,0.25118 -3.344687,0.25118 -5.029553,0 -9.7536,-1.70709 -13.42002,-4.60939 -3.66642,-2.90301 -6.2738,-6.99523 -7.084131,-11.77608 l -0.347486,0.0593 -0.347839,0.0589 c 0.84067,4.96323 3.550003,9.21032 7.341659,12.21105 3.791656,3.00108 8.668456,4.7618 13.857817,4.7618 1.137356,0 2.290234,-0.0847 3.449815,-0.25894 10.593917,-1.59597 18.172995,-10.18046 18.174406,-19.95029 3.53e-4,-1.05234 -0.08784,-2.11773 -0.269169,-3.18911 -0.842081,-4.96394 -3.551767,-9.21103 -7.343423,-12.21176 -3.792009,-3.00143 -8.668103,-4.76144 -13.857465,-4.76144 -1.137355,-3.5e-4 -2.28988,0.0847 -3.448755,0.25929 -10.595682,1.59491 -18.174054,10.1794 -18.175466,19.94958 -3.52e-4,1.05269 0.08855,2.11844 0.270581,3.18982 l 0.347839,-0.0589"
       style="fill:#f04624;fill-opacity:1;fill-rule:nonzero;stroke:none;stroke-width:0.0352778"
       id="path92"
       inkscape:export-filename="/home/sime/Downloads/logo_nero.png"
       inkscape:export-xdpi="300"
       inkscape:export-ydpi="300" />
    <path
       d="m 52.286835,135.74556 0.336197,-0.10584 c -0.5461,-1.73919 -0.807156,-3.49179 -0.807508,-5.2204 -0.0018,-8.51042 6.326011,-16.46767 16.043981,-19.04083 2.107495,-0.55774 4.228395,-0.82339 6.308726,-0.82374 4.727928,0 9.2456,1.37301 12.908139,3.80224 3.663598,2.42923 6.470651,5.90973 7.798506,10.13284 0.5461,1.73884 0.80645,3.49144 0.806803,5.22005 0.0018,8.51006 -6.326717,16.46731 -16.042923,19.04118 -2.107495,0.55774 -4.228395,0.82268 -6.308726,0.82303 -4.728633,0 -9.246306,-1.37301 -12.909198,-3.80224 -3.663597,-2.42922 -6.47065,-5.90938 -7.7978,-10.13178 l -0.336197,0.10549 -0.33655,0.10583 c 1.379361,4.39032 4.297539,8.00065 8.080375,10.50854 3.783895,2.50861 8.434212,3.91936 13.29937,3.91936 2.139951,3.6e-4 4.322234,-0.27269 6.488995,-0.84631 9.988904,-2.64372 16.566093,-10.85391 16.567857,-19.7231 3.53e-4,-1.79952 -0.270933,-3.62444 -0.839258,-5.43172 -1.380067,-4.39103 -4.297892,-8.00135 -8.081082,-10.50925 -3.783894,-2.5086 -8.433858,-3.91936 -13.298311,-3.91936 -2.140656,-3.5e-4 -4.321881,0.2734 -6.489348,0.84702 -9.990315,2.64266 -16.566798,10.85321 -16.568562,19.72275 -3.53e-4,1.79952 0.271639,3.62479 0.839964,5.43207 l 0.33655,-0.10583"
       style="fill:#f04624;fill-opacity:1;fill-rule:nonzero;stroke:none;stroke-width:0.0352778"
       id="path94"
       inkscape:export-filename="/home/sime/Downloads/logo_nero.png"
       inkscape:export-xdpi="300"
       inkscape:export-ydpi="300" />
    <path
       d="m 52.054354,138.31872 0.317853,-0.1524 c -1.117953,-2.33716 -1.646767,-4.76921 -1.64712,-7.18291 -0.0018,-7.73466 5.442656,-15.31409 14.461068,-18.74556 3.157009,-1.20156 6.428317,-1.77059 9.617781,-1.77059 4.379031,0 8.601781,1.0728 12.15637,3.04694 3.555648,1.9745 6.441017,4.84611 8.165395,8.44868 1.117953,2.33715 1.646414,4.7692 1.646767,7.18291 0.0021,7.7343 -5.443714,15.31373 -14.460362,18.7459 -3.157361,1.20086 -6.429023,1.76954 -9.618487,1.76954 -4.379383,3.5e-4 -8.602839,-1.0728 -12.157428,-3.04694 -3.555295,-1.9745 -6.440312,-4.84576 -8.163984,-8.44762 l -0.317853,0.15205 -0.318205,0.1524 c 1.793169,3.74826 4.791075,6.72429 8.457495,8.76017 3.667478,2.03589 8.005586,3.13514 12.499975,3.13549 3.273073,0 6.629754,-0.58314 9.869665,-1.81574 9.247364,-3.51826 14.91227,-11.33123 14.914387,-19.40525 3.53e-4,-2.51707 -0.55245,-5.05637 -1.715559,-7.48736 -1.794227,-3.74897 -4.792133,-6.72535 -8.459258,-8.76088 -3.667126,-2.03624 -8.004881,-3.13549 -12.498918,-3.13549 -3.273072,0 -6.6294,0.58385 -9.868959,1.81645 -9.249128,3.51755 -14.913681,11.33052 -14.915092,19.4049 -3.53e-4,2.51707 0.55245,5.05636 1.716264,7.48771 l 0.318205,-0.1524"
       style="fill:#f04624;fill-opacity:1;fill-rule:nonzero;stroke:none;stroke-width:0.0352778"
       id="path96"
       inkscape:export-filename="/home/sime/Downloads/logo_nero.png"
       inkscape:export-xdpi="300"
       inkscape:export-ydpi="300" />
    <path
       d="m 52.141843,140.9014 0.292453,-0.19685 c -1.88207,-2.79964 -2.770717,-5.86881 -2.771423,-8.95844 -0.0018,-7.04215 4.638323,-14.21659 12.837232,-18.32857 4.224867,-2.11913 8.813448,-3.13161 13.246101,-3.13161 7.941028,-3.5e-4 15.359945,3.24873 19.317759,9.13907 1.881717,2.79929 2.770011,5.8681 2.770717,8.95773 0.0014,7.0418 -4.639381,14.21624 -12.836879,18.32892 -4.224866,2.11914 -8.813447,3.13091 -13.246453,3.13091 -7.941734,7e-4 -15.361004,-3.24873 -19.317054,-9.13801 l -0.292453,0.19685 -0.292806,0.1965 c 4.126795,6.13198 11.776429,9.44951 19.902313,9.45021 4.539897,0 9.235017,-1.0354 13.562895,-3.20569 8.391878,-4.20899 13.223876,-11.60039 13.22564,-18.95969 7.05e-4,-3.22509 -0.931686,-6.43961 -2.890661,-9.35143 -4.128559,-6.13269 -11.777487,-9.45022 -19.903018,-9.45057 -4.539898,0 -9.234312,1.03576 -13.56219,3.20605 -8.393642,4.20828 -13.224581,11.59968 -13.226345,18.95933 -7.06e-4,3.22545 0.932039,6.43961 2.891366,9.35179 l 0.292806,-0.1965"
       style="fill:#f04624;fill-opacity:1;fill-rule:nonzero;stroke:none;stroke-width:0.0352778"
       id="path98"
       inkscape:export-filename="/home/sime/Downloads/logo_nero.png"
       inkscape:export-xdpi="300"
       inkscape:export-ydpi="300" />
    <path
       d="m 52.564118,143.45375 0.260703,-0.23777 c -2.82575,-3.0988 -4.169834,-6.76628 -4.171245,-10.5403 -0.0011,-6.41244 3.904545,-13.15402 11.190465,-17.75848 5.243336,-3.3147 11.326989,-4.94171 17.120659,-4.94136 6.988176,-3.5e-4 13.539612,2.36608 17.709093,6.93773 2.824692,3.0981 4.168422,6.76557 4.169834,10.53959 0.0014,6.41244 -3.904545,13.15367 -11.189407,17.75919 -5.243689,3.31434 -11.327342,4.94136 -17.121365,4.941 -6.988881,3.6e-4 -13.54067,-2.36643 -17.708034,-6.93737 l -0.260703,0.23777 -0.260703,0.23777 c 4.340578,4.75439 11.086748,7.16668 18.22944,7.16704 5.925256,-3.6e-4 12.133793,-1.65982 17.498838,-5.04967 7.447139,-4.70782 11.515725,-11.65083 11.517136,-18.35573 0.0014,-3.94229 -1.413933,-7.79498 -4.353983,-11.01549 -4.341989,-4.75474 -11.087807,-7.16668 -18.230146,-7.16703 -5.924903,3.5e-4 -12.133087,1.65982 -17.497779,5.05001 -7.44855,4.70677 -11.517137,11.64979 -11.518548,18.35503 -0.0011,3.94229 1.414287,7.79533 4.355042,11.01584 l 0.260703,-0.23777"
       style="fill:#f04624;fill-opacity:1;fill-rule:nonzero;stroke:none;stroke-width:0.0352778"
       id="path100"
       inkscape:export-filename="/home/sime/Downloads/logo_nero.png"
       inkscape:export-xdpi="300"
       inkscape:export-ydpi="300" />
    <path
       d="m 53.333174,145.93589 0.222602,-0.27375 c -3.934178,-3.20922 -5.832828,-7.43903 -5.83565,-11.92389 -0.0011,-5.8286 3.232856,-12.10663 9.539112,-17.00812 6.1341,-4.76991 13.88357,-7.22348 21.121512,-7.22278 5.92067,-3.5e-4 11.488915,1.64007 15.561735,4.95971 3.934178,3.20922 5.832122,7.43867 5.834592,11.92353 0.0011,5.82825 -3.233562,12.10628 -9.538407,17.00883 -6.1341,4.76956 -13.884275,7.22313 -21.122218,7.22207 -5.921375,3.5e-4 -11.489973,-1.64042 -15.560676,-4.95935 l -0.222602,0.27375 -0.222956,0.27341 c 4.230159,3.44593 9.957859,5.11739 16.006234,5.11775 7.395281,-0.001 15.284804,-2.49767 21.55543,-7.37094 6.439958,-5.00733 9.809688,-11.47163 9.810398,-17.56552 0.003,-4.6863 -2.00519,-9.14223 -6.094237,-12.47034 -4.231923,-3.44664 -9.95927,-5.1181 -16.007293,-5.11845 -7.395281,0.001 -15.284098,2.49802 -21.554723,7.37129 -6.441017,5.00627 -9.810045,11.47092 -9.811104,17.56516 -0.0028,4.6863 2.005895,9.14259 6.095295,12.47105 l 0.222956,-0.27341"
       style="fill:#f04624;fill-opacity:1;fill-rule:nonzero;stroke:none;stroke-width:0.0352778"
       id="path102"
       inkscape:export-filename="/home/sime/Downloads/logo_nero.png"
       inkscape:export-xdpi="300"
       inkscape:export-ydpi="300" />
    <path
       d="m 54.454654,148.3055 0.180975,-0.30268 c -2.596444,-1.55187 -4.531431,-3.52037 -5.820833,-5.7524 -1.28905,-2.23202 -1.933576,-4.73004 -1.933928,-7.35118 -7.06e-4,-5.27332 2.619375,-11.05359 7.909631,-16.05386 6.811081,-6.44278 16.369242,-9.98361 25.090615,-9.98149 4.775553,0 9.295695,1.05939 12.981518,3.26284 2.595739,1.55187 4.531078,3.52002 5.820128,5.75204 1.288344,2.23203 1.93287,4.73005 1.93322,7.35118 7.1e-4,5.27297 -2.619726,11.05289 -7.908571,16.05386 -6.81108,6.44243 -16.369948,9.98326 -25.092026,9.98115 -4.775906,3.5e-4 -9.295695,-1.0594 -12.979754,-3.26214 l -0.180975,0.30268 -0.181327,0.30269 c 3.818466,2.28212 8.463139,3.36197 13.342056,3.36232 8.909756,-0.002 18.61679,-3.59727 25.576743,-10.17376 5.398912,-5.1054 8.128354,-11.05676 8.129064,-16.5668 3.5e-4,-2.73685 -0.67522,-5.36222 -2.027772,-7.70431 -1.352197,-2.34174 -3.379611,-4.39773 -6.068836,-6.00463 -3.820231,-2.28247 -8.464904,-3.36233 -13.343468,-3.36233 -8.90905,0.002 -18.615731,3.59728 -25.575332,10.17412 -5.400675,5.10469 -8.129412,11.05605 -8.130117,16.56644 -3.53e-4,2.7365 0.675217,5.36222 2.028119,7.70396 1.352551,2.34245 3.380317,4.39808 6.069543,6.00499 l 0.181327,-0.30269"
       style="fill:#f04624;fill-opacity:1;fill-rule:nonzero;stroke:none;stroke-width:0.0352778"
       id="path104"
       inkscape:export-filename="/home/sime/Downloads/logo_nero.png"
       inkscape:export-xdpi="300"
       inkscape:export-ydpi="300" />
    <path
       d="m 55.930324,150.52095 0.136525,-0.32526 c -3.285067,-1.38113 -5.759098,-3.38985 -7.416095,-5.8039 -1.656292,-2.41442 -2.498725,-5.23805 -2.499431,-8.26982 -3.53e-4,-4.73146 2.060575,-9.97444 6.330951,-14.87558 7.198431,-8.27123 18.654184,-13.208 28.866396,-13.20377 3.595864,0 7.035448,0.6096 10.082389,1.89089 3.28542,1.38112 5.759098,3.38949 7.416095,5.80355 1.656296,2.41441 2.498726,5.23804 2.499436,8.27017 3.5e-4,4.73075 -2.061286,9.97338 -6.330955,14.87558 -7.198784,8.27123 -18.65489,13.20729 -28.866749,13.20341 -3.596217,0 -7.036154,-0.6103 -10.082037,-1.89053 l -0.136525,0.32526 -0.136525,0.32526 c 3.147131,1.32256 6.679142,1.94522 10.355087,1.94522 10.434109,-0.004 22.041909,-5.00592 29.39909,-13.44507 4.357864,-5.0038 6.503464,-10.40095 6.503814,-15.33913 7e-4,-3.16266 -0.883,-6.13481 -2.622905,-8.66917 -1.739195,-2.53506 -4.3307,-4.62915 -7.724423,-6.05507 -3.148542,-1.32327 -6.680553,-1.94557 -10.355792,-1.94557 -10.434462,0.004 -22.041557,5.00627 -29.398738,13.44542 -4.35857,5.00274 -6.503459,10.40059 -6.503812,15.33913 -7.05e-4,3.1623 0.883003,6.13445 2.622903,8.66916 1.739195,2.53506 4.331053,4.62915 7.724776,6.05508 l 0.136525,-0.32526"
       style="fill:#f04624;fill-opacity:1;fill-rule:nonzero;stroke:none;stroke-width:0.0352778"
       id="path106"
       inkscape:export-filename="/home/sime/Downloads/logo_nero.png"
       inkscape:export-xdpi="300"
       inkscape:export-ydpi="300" />
    <path
       d="m 57.756655,152.54025 0.09137,-0.34079 c -4.021667,-1.08161 -7.09295,-3.05717 -9.162345,-5.62222 -2.068336,-2.5661 -3.142897,-5.72628 -3.143956,-9.21314 -3.53e-4,-4.18641 1.55575,-8.84485 4.836584,-13.45318 3.621264,-5.09059 8.770056,-9.30981 14.48047,-12.25162 5.710062,-2.94252 11.978923,-4.60622 17.826215,-4.60587 2.416175,0 4.759678,0.28363 6.964892,0.87665 4.02202,1.08127 7.092598,3.05682 9.16164,5.62187 2.068335,2.56575 3.142545,5.72594 3.143605,9.21315 3.5e-4,4.1857 -1.55646,8.84414 -4.835175,13.45353 -3.621264,5.08988 -8.770761,9.3091 -14.481176,12.25091 -5.709708,2.94252 -11.979275,4.60622 -17.826567,4.60552 -2.416528,0 -4.76109,-0.28363 -6.964187,-0.8756 l -0.09137,0.34079 -0.09172,0.34043 c 2.270125,0.60995 4.675717,0.89993 7.147279,0.89993 5.980642,-3.5e-4 12.348986,-1.6958 18.149712,-4.68383 5.800372,-2.98873 11.034537,-7.27216 14.733059,-12.46928 3.346805,-4.70535 4.964995,-9.50031 4.965345,-13.8624 0.001,-3.63185 -1.12571,-6.96243 -3.299528,-9.65624 -2.173111,-2.69451 -5.385506,-4.74768 -9.527823,-5.85999 -2.271536,-0.61101 -4.677128,-0.90064 -7.147984,-0.90064 -5.980995,3.5e-4 -12.348987,1.6958 -18.149359,4.68383 -5.799667,2.98909 -11.033479,7.27251 -14.732354,12.46964 -3.34892,4.70429 -4.966406,9.49995 -4.966759,13.8624 -0.0011,3.63149 1.12642,6.96207 3.300237,9.65588 2.173111,2.69487 5.385858,4.74804 9.528175,5.8607 l 0.09172,-0.34043"
       style="fill:#f04624;fill-opacity:1;fill-rule:nonzero;stroke:none;stroke-width:0.0352778"
       id="path108"
       inkscape:export-filename="/home/sime/Downloads/logo_nero.png"
       inkscape:export-xdpi="300"
       inkscape:export-ydpi="300" />
    <path
       d="m 59.923769,154.32178 0.04692,-0.34996 c -4.789664,-0.64347 -8.51147,-2.50719 -11.03877,-5.19183 -2.526595,-2.68605 -3.870678,-6.19866 -3.872442,-10.19845 0,-3.62056 1.107017,-7.63976 3.462514,-11.77008 3.448756,-6.05261 8.973609,-11.28431 15.291859,-14.99518 6.317192,-3.71192 13.42496,-5.90126 20.018729,-5.9002 1.253067,0 2.487437,0.0787 3.694995,0.2413 4.789311,0.64381 8.511117,2.50754 11.038417,5.19183 2.525889,2.68569 3.870329,6.19866 3.871739,10.19845 0,3.61985 -1.10737,7.6387 -3.461458,11.77043 -3.448756,6.05226 -8.974314,11.2836 -15.292565,14.99447 -6.317545,3.71193 -13.425312,5.90127 -20.019082,5.90021 -1.253066,0 -2.487789,-0.0794 -3.694289,-0.24095 l -0.04657,0.34996 -0.04692,0.34925 c 1.238956,0.16615 2.504722,0.24694 3.787775,0.24694 6.749698,-0.001 13.964004,-2.23132 20.376446,-5.99722 6.411737,-3.76696 12.023726,-9.07204 15.547976,-15.25341 2.403827,-4.21922 3.553887,-8.35484 3.553887,-12.11968 0.002,-4.15749 -1.40829,-7.86306 -4.063298,-10.68176 -2.6543,-2.82046 -6.540148,-4.74804 -11.458223,-5.40773 -1.240367,-0.16686 -2.506486,-0.2473 -3.788834,-0.2473 -6.749697,0.001 -13.964003,2.23132 -20.376445,5.99723 -6.411031,3.76731 -12.023021,9.07238 -15.546918,15.25375 -2.405239,4.21852 -3.554942,8.35449 -3.554942,12.11969 -0.0018,4.15748 1.408642,7.86306 4.063648,10.68211 2.6543,2.8201 6.5405,4.74803 11.458575,5.40738 l 0.04727,-0.34925"
       style="fill:#f04624;fill-opacity:1;fill-rule:nonzero;stroke:none;stroke-width:0.0352778"
       id="path110"
       inkscape:export-filename="/home/sime/Downloads/logo_nero.png"
       inkscape:export-xdpi="300"
       inkscape:export-ydpi="300" />
    <path
       d="m 62.416144,155.82567 0.0035,-0.35278 c -5.569303,-0.0607 -9.993842,-1.7272 -13.025261,-4.50039 -3.030362,-2.77495 -4.688065,-6.66256 -4.690534,-11.24973 0,-3.01307 0.719314,-6.32672 2.251428,-9.80652 3.072342,-6.98782 8.837084,-13.31418 15.683442,-17.88301 6.845301,-4.57059 14.768338,-7.38046 22.130105,-7.3787 0.103011,0 0.205669,3.5e-4 0.307622,0.002 h 0.0018 c 5.569656,0.0603 9.993842,1.7272 13.024909,4.50038 3.030365,2.77495 4.687715,6.66256 4.690185,11.24973 0,3.01273 -0.72002,6.32672 -2.25037,9.80687 -3.072698,6.98747 -8.837088,13.31384 -15.684152,17.88266 -6.845653,4.57059 -14.769043,7.37976 -22.130104,7.37835 -0.103364,0 -0.206728,-7e-4 -0.309739,-10e-4 l -0.0028,0.35278 -0.0032,0.35242 c 0.103716,0.001 0.209197,0.002 0.315736,0.002 7.540978,-0.002 15.578315,-2.86385 22.52204,-7.49724 6.942314,-4.63479 12.795251,-11.04476 15.938149,-18.18534 1.56351,-3.55635 2.30964,-6.96525 2.30964,-10.09086 0.002,-4.75615 -1.73567,-8.85966 -4.919138,-11.77007 -3.182409,-2.91219 -7.790039,-4.62492 -13.493751,-4.68525 h 0.0021 c -0.108303,-0.002 -0.214136,-0.002 -0.318911,-0.002 -7.540979,0.001 -15.578668,2.86385 -22.521688,7.49758 -6.942314,4.63515 -12.794898,11.04477 -15.937795,18.1857 -1.565275,3.55565 -2.310695,6.96489 -2.310695,10.0905 -0.0025,4.75651 1.735667,8.86002 4.919487,11.77043 3.182761,2.91183 7.790392,4.62457 13.494103,4.68489 l 0.0039,-0.35242"
       style="fill:#f04624;fill-opacity:1;fill-rule:nonzero;stroke:none;stroke-width:0.0352778"
       id="path112"
       inkscape:export-filename="/home/sime/Downloads/logo_nero.png"
       inkscape:export-xdpi="300"
       inkscape:export-ydpi="300" />
    <path
       d="m 65.213672,157.01488 -0.03775,-0.35101 c -1.066447,0.11359 -2.100791,0.16863 -3.099858,0.16863 -5.439834,-0.001 -9.835445,-1.63619 -12.872156,-4.45206 -3.035653,-2.81728 -4.73322,-6.82378 -4.73569,-11.65013 0,-2.33892 0.401109,-4.86975 1.248834,-7.54275 2.328686,-7.35824 7.596364,-14.38733 14.230351,-19.77249 6.632928,-5.38727 14.627226,-9.12706 22.374932,-9.94974 1.066447,-0.11324 2.100439,-0.16898 3.099505,-0.16898 5.439481,10e-4 9.834387,1.63618 12.871098,4.45205 3.035302,2.81729 4.732512,6.82343 4.734982,11.65014 0,2.33891 -0.4004,4.86939 -1.24671,7.54345 -2.328691,7.35788 -7.596722,14.38733 -14.230708,19.77249 -6.632576,5.38727 -14.626874,9.12706 -22.37458,9.94939 l 0.03775,0.35101 0.03704,0.35066 c 7.919862,-0.84349 16.020346,-4.64467 22.744643,-10.1032 6.722887,-5.4603 12.073465,-12.58147 14.458595,-20.10763 0.86537,-2.73473 1.27918,-5.33647 1.27918,-7.75617 0.002,-4.99075 -1.77059,-9.21174 -4.960413,-12.16766 -3.188406,-2.95734 -7.772753,-4.64044 -13.350876,-4.63974 -1.024819,0 -2.083505,0.0568 -3.174294,0.17287 -7.919862,0.84349 -16.020699,4.64467 -22.744996,10.1032 -6.722534,5.46029 -12.072762,12.58147 -14.458246,20.10728 -0.867127,2.73402 -1.281288,5.33611 -1.281288,7.75582 -0.0025,4.99039 1.771297,9.21173 4.961114,12.16765 3.188758,2.95699 7.773459,4.6408 13.351934,4.63974 1.025172,0 2.084211,-0.0565 3.174647,-0.17216 l -0.03704,-0.35066"
       style="fill:#f04624;fill-opacity:1;fill-rule:nonzero;stroke:none;stroke-width:0.0352778"
       id="path114"
       inkscape:export-filename="/home/sime/Downloads/logo_nero.png"
       inkscape:export-xdpi="300"
       inkscape:export-ydpi="300" />
    <path
       d="m 68.288483,157.85414 -0.0762,-0.34431 c -2.261659,0.49847 -4.410781,0.73695 -6.424084,0.73695 -5.301192,-0.001 -9.654823,-1.64818 -12.687653,-4.54554 -3.031067,-2.89878 -4.760384,-7.05908 -4.762501,-12.16448 0,-1.56634 0.164042,-3.22087 0.505178,-4.953 1.488017,-7.58296 6.089298,-15.20155 12.330643,-21.35647 6.239581,-6.15597 14.114992,-10.84509 22.112112,-12.60757 2.261306,-0.49883 4.409723,-0.73731 6.423378,-0.73731 5.300487,0.001 9.654118,1.64818 12.68589,4.54519 3.031064,2.89843 4.760734,7.05838 4.762504,12.16343 0,1.56669 -0.16299,3.22157 -0.50271,4.95441 -1.48837,7.58331 -6.089652,15.2019 -12.330645,21.35646 -6.239933,6.15633 -14.114992,10.84545 -22.112112,12.60793 l 0.0762,0.34431 0.07585,0.34431 c 8.15834,-1.80022 16.131471,-6.55743 22.455365,-12.79419 6.322484,-6.23782 10.999962,-13.95801 12.527492,-21.72265 0.34784,-1.77447 0.51576,-3.47486 0.51576,-5.09058 0.002,-5.26274 -1.79635,-9.6333 -4.980162,-12.67354 -3.182056,-3.04165 -7.729362,-4.74169 -13.173429,-4.74063 -2.069042,0 -4.268611,0.24518 -6.575425,0.75388 -8.15834,1.80058 -16.131823,6.55779 -22.455365,12.7942 -6.322484,6.23817 -10.999965,13.95836 -12.527493,21.723 -0.34925,1.77306 -0.51823,3.47345 -0.51823,5.08882 -0.0021,5.26273 1.79705,9.634 4.980516,12.6746 3.182409,3.04165 7.729715,4.74168 13.17484,4.74062 2.068689,0 4.268612,-0.24447 6.576131,-0.75353 l -0.07585,-0.34431"
       style="fill:#f04624;fill-opacity:1;fill-rule:nonzero;stroke:none;stroke-width:0.0352778"
       id="path116"
       inkscape:export-filename="/home/sime/Downloads/logo_nero.png"
       inkscape:export-xdpi="300"
       inkscape:export-ydpi="300" />
    <path
       d="m 71.608828,158.3124 -0.112537,-0.33444 c -3.438525,1.15253 -6.689725,1.69687 -9.663995,1.69687 -5.240514,-10e-4 -9.614959,-1.68487 -12.686595,-4.71276 -3.070578,-3.02931 -4.855986,-7.4168 -4.85775,-12.89791 3.53e-4,-0.65335 0.0254,-1.32151 0.07832,-2.00413 l 3.52e-4,-7.1e-4 c 0.581731,-7.70325 4.409723,-15.82455 10.141304,-22.69455 5.729817,-6.87105 13.357578,-12.48727 21.493693,-15.21354 3.438172,-1.15252 6.689372,-1.69721 9.663642,-1.69721 5.239809,0.001 9.614253,1.68486 12.685537,4.71276 3.070221,3.0293 4.855281,7.41715 4.857041,12.89826 -3.5e-4,0.65334 -0.0251,1.32186 -0.0762,2.00554 -0.58138,7.70255 -4.409719,15.82385 -10.1413,22.69384 -5.729817,6.87106 -13.357931,12.48728 -21.494046,15.21354 l 0.112537,0.33444 0.11183,0.33443 c 8.286045,-2.77883 16.004471,-8.47019 21.811193,-15.4305 5.804606,-6.96136 9.703146,-15.1952 10.303576,-23.09283 0.0526,-0.70133 0.078,-1.38713 0.0776,-2.05846 0.002,-5.63245 -1.84608,-10.22633 -5.066588,-13.40062 -3.219098,-3.17571 -7.792509,-4.91737 -13.18119,-4.915959 -3.0607,0 -6.386336,0.559859 -9.888009,1.733899 -8.285692,2.77883 -16.00447,8.4702 -21.81084,15.43051 -5.804606,6.96171 -9.703154,15.19519 -10.303581,23.09318 l 3.52e-4,-7e-4 c -0.05433,0.70097 -0.08079,1.38747 -0.08043,2.05881 -0.0014,5.63174 1.846792,10.22597 5.067653,13.40026 3.219098,3.17536 7.792862,4.91702 13.181895,4.91561 3.060701,0 6.386337,-0.55915 9.888362,-1.7332 l -0.11183,-0.33443"
       style="fill:#f04624;fill-opacity:1;fill-rule:nonzero;stroke:none;stroke-width:0.0352778"
       id="path118"
       inkscape:export-filename="/home/sime/Downloads/logo_nero.png"
       inkscape:export-xdpi="300"
       inkscape:export-ydpi="300" />
    <path
       d="m 75.136958,158.36285 -0.14605,-0.32103 c -4.552597,2.06551 -8.901289,3.03777 -12.813242,3.03777 -5.054248,-0.001 -9.373306,-1.61819 -12.503856,-4.60269 -3.129845,-2.98556 -5.086351,-7.35119 -5.359754,-12.91238 -0.02187,-0.44309 -0.03316,-0.889 -0.03316,-1.33632 -0.0018,-7.57449 3.081867,-15.81891 8.160809,-23.06214 5.076825,-7.2443 12.144023,-13.48458 20.066001,-17.07833 4.551892,-2.06587 8.900232,-3.038827 12.811832,-3.038827 5.053189,0.0014 9.372248,1.618547 12.503151,4.603047 3.129841,2.98556 5.086701,7.35153 5.361871,12.91272 0.0212,0.44274 0.0314,0.8883 0.0317,1.33597 0.002,7.5745 -3.08187,15.81856 -8.160458,23.06179 -5.077178,7.24465 -12.14367,13.48529 -20.064943,17.07939 l 0.14605,0.32103 0.145698,0.32102 c 8.056386,-3.65724 15.205781,-9.97761 20.350693,-17.3161 5.14279,-7.33954 8.28675,-15.70072 8.28816,-23.46713 0,-0.45896 -0.0106,-0.91581 -0.0325,-1.37019 -0.27904,-5.70653 -2.30293,-10.26618 -5.579528,-13.38897 -3.275189,-3.1242 -7.787923,-4.798838 -12.989984,-4.79778 -4.029075,0 -8.473723,1.000478 -13.103932,3.10162 -8.057092,3.65725 -15.206839,9.97726 -20.351751,17.31575 -5.143147,7.33954 -8.286398,15.70073 -8.288161,23.46713 -3.53e-4,0.45932 0.01129,0.91652 0.03387,1.37125 0.277636,5.70547 2.300817,10.26513 5.577064,13.38791 3.27519,3.12421 7.788276,4.79884 12.991043,4.79778 4.029428,0 8.474781,-1.00047 13.10499,-3.10127 l -0.145698,-0.32102"
       style="fill:#f04624;fill-opacity:1;fill-rule:nonzero;stroke:none;stroke-width:0.0352778"
       id="path120"
       inkscape:export-filename="/home/sime/Downloads/logo_nero.png"
       inkscape:export-xdpi="300"
       inkscape:export-ydpi="300" />
    <path
       d="m 78.829131,157.9829 -0.177095,-0.3055 c -5.557661,3.22403 -11.006667,4.75015 -15.858067,4.75015 -4.602692,-0.001 -8.665281,-1.37019 -11.806768,-3.96734 -3.141133,-2.59891 -5.371747,-6.4322 -6.278386,-11.41201 -0.293159,-1.61007 -0.435681,-3.27483 -0.435681,-4.97522 -7.05e-4,-7.17903 2.535061,-15.00117 6.880226,-22.06837 4.344458,-7.0679 10.494434,-13.37875 17.692865,-17.55281 5.557661,-3.224039 11.005961,-4.750861 15.857009,-4.750508 4.602692,0.0011 8.664576,1.369836 11.806767,3.967338 3.140428,2.59856 5.371749,6.43255 6.279799,11.41236 0.2928,1.61008 0.43427,3.27449 0.43427,4.97488 0.001,7.17867 -2.53506,15.00081 -6.88058,22.06836 -4.344106,7.06755 -10.494434,13.3784 -17.691454,17.55317 l 0.177095,0.3055 0.176742,0.3048 c 7.313083,-4.24321 13.536789,-10.63413 17.938751,-17.79411 4.400906,-7.16068 6.983586,-15.09289 6.984646,-22.43772 0,-1.73955 -0.14428,-3.44629 -0.44556,-5.10117 -0.93027,-5.11704 -3.24379,-9.1179 -6.52427,-11.8297 -3.279775,-2.712861 -7.515225,-4.12997 -12.256206,-4.128911 -4.999567,3.53e-4 -10.564284,1.569861 -16.210845,4.845401 -7.314143,4.24286 -13.537849,10.63343 -17.940163,17.79341 -4.40055,7.16068 -6.983236,15.09289 -6.984295,22.43808 0,1.73955 0.145345,3.44628 0.446617,5.10152 0.92957,5.11669 3.242381,9.11754 6.522862,11.82934 3.279422,2.71286 7.514872,4.12997 12.256559,4.12891 4.999919,-3.5e-4 10.565342,-1.5695 16.211904,-4.84505 l -0.176742,-0.3048"
       style="fill:#f04624;fill-opacity:1;fill-rule:nonzero;stroke:none;stroke-width:0.0352778"
       id="path122"
       inkscape:export-filename="/home/sime/Downloads/logo_nero.png"
       inkscape:export-xdpi="300"
       inkscape:export-ydpi="300" />
    <path
       d="m 82.63772,157.15564 -0.206022,-0.28646 c -6.408209,4.60693 -12.964937,6.81849 -18.782949,6.81814 -4.187825,-7e-4 -7.991475,-1.14265 -11.10615,-3.36127 -3.114323,-2.21967 -5.547079,-5.51885 -6.975476,-9.87001 -0.909108,-2.77107 -1.34373,-5.76898 -1.34373,-8.88718 -7.06e-4,-6.73912 2.031294,-14.03809 5.656439,-20.7899 3.624086,-6.75252 8.839553,-12.95683 15.186379,-17.51895 6.407855,-4.606924 12.964584,-6.819193 18.782242,-6.818488 4.187473,7.06e-4 7.99077,1.142647 11.106151,3.361267 3.114322,2.219681 5.547076,5.518851 6.976186,9.870721 0.90875,2.77107 1.34337,5.76898 1.34337,8.88718 7.1e-4,6.73876 -2.03164,14.03738 -5.656789,20.7892 -3.624086,6.75252 -8.839201,12.95682 -15.185673,17.51929 l 0.206022,0.28646 0.205669,0.2861 c 6.443487,-4.63303 11.722807,-10.91635 15.395576,-17.75813 3.672065,-6.84177 5.739695,-14.24269 5.740405,-21.12292 0,-3.18347 -0.44274,-6.25581 -1.37866,-9.10731 -1.46826,-4.47675 -3.992739,-7.91457 -7.236884,-10.225266 -3.244144,-2.3114 -7.200547,-3.492853 -11.515373,-3.492147 -5.997575,7.05e-4 -12.689064,2.274711 -19.193934,6.951483 -6.444192,4.63268 -11.723865,10.91601 -15.396634,17.75778 -3.671712,6.84177 -5.73899,14.2427 -5.739695,21.12363 0,3.18347 0.443089,6.25581 1.379008,9.10696 1.467203,4.47639 3.991328,7.91421 7.235826,10.22491 3.243791,2.3114 7.200547,3.4925 11.515725,3.49215 5.997223,-7.1e-4 12.689065,-2.27436 19.19464,-6.95114 l -0.205669,-0.2861"
       style="fill:#f04624;fill-opacity:1;fill-rule:nonzero;stroke:none;stroke-width:0.0352778"
       id="path124"
       inkscape:export-filename="/home/sime/Downloads/logo_nero.png"
       inkscape:export-xdpi="300"
       inkscape:export-ydpi="300" />
    <path
       d="m 86.51122,155.87047 -0.232833,-0.26529 c -7.056967,6.18949 -14.735882,9.22902 -21.571657,9.22796 -3.796242,-3.5e-4 -7.333192,-0.93451 -10.377665,-2.78553 -3.044119,-1.85173 -5.600347,-4.62104 -7.427736,-8.31568 -1.909939,-3.8615 -2.819753,-8.32838 -2.819753,-13.05313 -0.0039,-12.45941 6.3373,-26.68835 17.138298,-36.15479 7.056615,-6.189482 14.734471,-9.229369 21.570952,-9.22831 3.795889,3.53e-4 7.332486,0.934508 10.376959,2.785533 3.044119,1.851731 5.6007,4.621037 7.429145,8.316387 1.90959,3.86115 2.8187,8.32802 2.8187,13.05278 0.004,12.4587 -6.338362,26.68728 -17.137243,36.15478 l 0.232833,0.26529 0.232481,0.26494 c 10.953398,-9.61285 17.373249,-23.99101 17.377129,-36.68501 0,-4.81436 -0.92569,-9.38954 -2.89172,-13.3657 -1.881011,-3.80435 -4.532136,-6.683725 -7.694789,-8.606364 -3.162653,-1.923344 -6.832248,-2.888545 -10.743495,-2.888192 -7.04709,0.0011 -14.875935,3.123848 -22.036619,9.403646 -10.954809,9.61214 -17.374306,23.9903 -17.378187,36.68501 0,4.81436 0.926395,9.38989 2.893131,13.36605 1.880306,3.80365 4.530725,6.68302 7.693378,8.60566 3.162653,1.92299 6.832601,2.88854 10.744201,2.88819 7.046384,-0.001 14.875934,-3.1235 22.036971,-9.40329 l -0.232481,-0.26494"
       style="fill:#f04624;fill-opacity:1;fill-rule:nonzero;stroke:none;stroke-width:0.0352778"
       id="path126"
       inkscape:export-filename="/home/sime/Downloads/logo_nero.png"
       inkscape:export-xdpi="300"
       inkscape:export-ydpi="300" />
    <path
       d="m 90.39354,154.12281 -0.257528,-0.24165 c -7.459486,7.94102 -16.276109,11.9634 -24.209024,11.96199 -6.836481,-0.004 -13.018912,-2.96722 -17.212029,-9.02265 -3.322108,-4.8006 -4.921603,-10.88672 -4.921603,-17.40923 -0.0021,-11.26208 4.773437,-23.80545 13.568893,-33.16288 7.459487,-7.941379 16.275404,-11.964104 24.207965,-11.962693 6.835776,0.0046 13.017854,2.966861 17.212735,9.023353 3.321751,4.80025 4.920541,10.88637 4.920541,17.40888 0.002,11.26172 -4.774138,23.80474 -13.567478,33.16323 l 0.257528,0.24165 0.256822,0.24165 c 8.918223,-9.49819 13.756218,-22.18796 13.758338,-33.64653 0,-6.63575 -1.6249,-12.86546 -5.045079,-17.8107 -4.315531,-6.243105 -10.753373,-9.330969 -17.793407,-9.326736 -8.173509,0.0014 -17.155584,4.130675 -24.722315,12.184596 -8.919987,9.49677 -13.757629,22.18725 -13.759745,33.64618 0,6.63575 1.6256,12.86545 5.046486,17.81069 4.313414,6.24276 10.751609,9.33097 17.792348,9.32639 8.173509,-0.001 17.15629,-4.13032 24.723374,-12.18389 l -0.256822,-0.24165"
       style="fill:#f04624;fill-opacity:1;fill-rule:nonzero;stroke:none;stroke-width:0.0352778"
       id="path128"
       inkscape:export-filename="/home/sime/Downloads/logo_nero.png"
       inkscape:export-xdpi="300"
       inkscape:export-ydpi="300" />
    <path
       d="m 94.22506,151.91513 -0.279753,-0.21555 c -7.57167,9.82486 -17.544699,15.00258 -26.682349,15.00082 -6.085064,-0.002 -11.801829,-2.28389 -16.256707,-7.0351 -5.149144,-5.4931 -7.699728,-13.34206 -7.699728,-21.82742 -7.06e-4,-9.87989 3.459692,-20.60646 10.246078,-29.40826 7.57167,-9.825217 17.544699,-15.00329 26.681997,-15.001173 6.084358,0.0025 11.801123,2.283178 16.257412,7.035443 5.14914,5.49275 7.69867,13.34206 7.69867,21.82743 7.1e-4,9.87954 -3.46005,20.60539 -10.245373,29.40826 l 0.279753,0.21555 0.2794,0.21519 c 6.88164,-8.93198 10.39072,-19.79613 10.39142,-29.839 0,-8.62295 -2.58903,-16.65218 -7.888815,-22.309673 -4.584347,-4.894792 -10.512073,-7.260872 -16.772467,-7.258403 -9.407173,0.0021 -19.560471,5.311775 -27.240797,15.275636 -6.8834,8.93092 -10.391775,19.79542 -10.392481,29.839 0,8.6226 2.589742,16.65217 7.889876,22.31002 4.583289,4.89338 10.510661,7.25982 16.771762,7.2577 9.407173,-0.002 19.561176,-5.31142 27.241502,-15.27528 l -0.2794,-0.21519"
       style="fill:#f04624;fill-opacity:1;fill-rule:nonzero;stroke:none;stroke-width:0.0352778"
       id="path130"
       inkscape:export-filename="/home/sime/Downloads/logo_nero.png"
       inkscape:export-xdpi="300"
       inkscape:export-ydpi="300" />
    <path
       d="m 97.945101,149.25694 -0.299861,-0.18697 c -7.351536,11.80077 -18.501079,18.32716 -28.986693,18.32434 -5.314245,-10e-4 -10.461273,-1.6697 -14.892162,-5.18372 -7.36212,-5.83706 -11.186937,-15.55573 -11.186937,-26.11755 0,-8.33861 2.384425,-17.19086 7.273573,-25.03382 7.351536,-11.800767 18.500373,-18.327509 28.985282,-18.324687 5.313539,7.06e-4 10.460215,1.668992 14.893926,5.18407 7.361411,5.836707 11.185521,15.555737 11.185521,26.117907 0,8.3379 -2.38548,17.19015 -7.27251,25.03382 l 0.299861,0.18661 0.299509,0.18627 c 4.95759,-7.95902 7.37835,-16.93474 7.37835,-25.4067 0,-10.72586 -3.88126,-20.66255 -11.452228,-26.67071 -4.556831,-3.614914 -9.871076,-5.337881 -15.332429,-5.336823 -10.782301,0.0025 -22.126224,6.688315 -29.584299,18.657003 -4.960056,7.95867 -7.379759,16.93475 -7.379759,25.40706 0,10.72515 3.881967,20.6622 11.453284,26.67036 4.554714,3.61385 9.868959,5.33752 15.331018,5.33647 10.783006,-0.003 22.127282,-6.68797 29.586063,-18.65631 l -0.299509,-0.18662"
       style="fill:#f04624;fill-opacity:1;fill-rule:nonzero;stroke:none;stroke-width:0.0352778"
       id="path132"
       inkscape:export-filename="/home/sime/Downloads/logo_nero.png"
       inkscape:export-xdpi="300"
       inkscape:export-ydpi="300" />
    <path
       d="m 101.49087,146.1652 -0.31715,-0.15522 c -6.761335,13.82148 -19.106089,21.91526 -31.123465,21.91209 -4.498622,-3.6e-4 -8.954206,-1.1303 -13.071828,-3.51967 -4.949826,-2.87302 -8.795104,-7.20972 -11.406012,-12.41919 -2.610556,-5.20912 -3.984273,-11.28995 -3.984273,-17.63324 0,-6.69149 1.527528,-13.67332 4.736395,-20.2304 6.760987,-13.82183 19.105387,-21.915968 31.123116,-21.913145 4.497917,3.52e-4 8.952795,1.1303 13.072181,3.520369 4.949826,2.873023 8.794751,7.209366 11.405306,12.419186 2.61091,5.20877 3.98392,11.2896 3.98392,17.6329 0,6.69113 -1.52823,13.67296 -4.73534,20.2311 l 0.31715,0.15522 0.31644,0.15487 c 3.25544,-6.65656 4.80695,-13.74281 4.80695,-20.54119 0,-6.4449 -1.39382,-12.63192 -4.05835,-17.94898 -2.663828,-5.31672 -6.601181,-9.764894 -11.681887,-12.713411 -4.226983,-2.453217 -8.810273,-3.61562 -13.42637,-3.615267 -12.34052,0.0028 -24.895882,8.283928 -31.756705,22.308258 -3.256844,6.65515 -4.808008,13.74211 -4.808008,20.54049 0,6.44489 1.394177,12.63191 4.058708,17.94933 2.664178,5.31671 6.602237,9.76454 11.68259,12.71341 4.225572,2.45216 8.809214,3.61526 13.426017,3.61491 12.340168,-0.003 24.895882,-8.28393 31.757055,-22.30755 l -0.31644,-0.15487"
       style="fill:#f04624;fill-opacity:1;fill-rule:nonzero;stroke:none;stroke-width:0.0352778"
       id="path134"
       inkscape:export-filename="/home/sime/Downloads/logo_nero.png"
       inkscape:export-xdpi="300"
       inkscape:export-ydpi="300" />
    <path
       d="m 104.79852,142.66423 -0.33197,-0.12065 c -5.762623,15.83796 -19.319522,25.74784 -33.107842,25.74467 -3.606095,0 -7.22877,-0.67628 -10.739614,-2.10044 -6.333773,-2.57034 -11.402484,-7.21219 -14.892515,-13.06971 -3.490031,-5.85717 -5.397148,-12.92896 -5.397148,-20.33941 0,-5.00027 0.867481,-10.154 2.701925,-15.19272 5.762626,-15.83867 19.319524,-25.748551 33.107491,-25.745729 3.605037,3.53e-4 7.227712,0.675923 10.739968,2.101145 6.333772,2.570692 11.402131,7.211834 14.892515,13.069364 3.48932,5.85681 5.39644,12.9286 5.39644,20.3394 0,4.99992 -0.86818,10.154 -2.70122,15.19343 l 0.33197,0.12065 0.33125,0.12065 c 1.86126,-5.11774 2.7432,-10.35332 2.7432,-15.43473 0,-7.53145 -1.93675,-14.726 -5.49557,-20.7003 -3.558468,-5.97429 -8.744654,-10.729381 -15.232944,-13.362161 -3.596922,-1.459795 -7.312731,-2.153003 -11.005609,-2.152651 -14.133689,0.0032 -27.919893,10.130012 -33.770713,26.209632 -1.862667,5.11668 -2.743906,10.35226 -2.743906,15.43402 0,7.5311 1.936398,14.72565 5.495926,20.7003 3.558822,5.97429 8.745009,10.72974 15.233298,13.36252 3.595511,1.45909 7.31132,2.15229 11.005256,2.15229 14.13369,-0.003 27.920246,-10.12966 33.771062,-26.20892 l -0.33125,-0.12065"
       style="fill:#f04624;fill-opacity:1;fill-rule:nonzero;stroke:none;stroke-width:0.0352778"
       id="path136"
       inkscape:export-filename="/home/sime/Downloads/logo_nero.png"
       inkscape:export-xdpi="300"
       inkscape:export-ydpi="300" />
    <path
       d="m 107.80524,138.7865 -0.3429,-0.0836 c -4.32294,17.79658 -19.107503,29.80796 -34.970157,29.80514 -2.596092,0 -5.221464,-0.32138 -7.836253,-0.9906 -7.780867,-1.99284 -14.234937,-6.75393 -18.750493,-13.14062 -4.514145,-6.38634 -7.085189,-14.39757 -7.085189,-22.872 3.53e-4,-3.31187 0.392289,-6.69466 1.215319,-10.07815 4.322939,-17.79658 19.107151,-29.809022 34.970158,-29.805847 2.595034,0 5.220406,0.320675 7.836606,0.990953 7.780514,1.992842 14.234232,6.753931 18.749439,13.140264 4.51485,6.38634 7.08518,14.39722 7.08518,22.87165 -3.5e-4,3.31187 -0.39264,6.69431 -1.21461,10.07921 l 0.3429,0.0836 0.3429,0.0829 c 0.83503,-3.43993 1.23437,-6.87846 1.23402,-10.24572 0,-8.61695 -2.61232,-16.76824 -7.21396,-23.27875 -4.601276,-6.509811 -11.197163,-11.380261 -19.150538,-13.416494 -2.674056,-0.685095 -5.358695,-1.013178 -8.011937,-1.013178 -16.227779,0.0032 -31.263521,12.262912 -35.655958,30.344532 -0.836436,3.43853 -1.235075,6.87741 -1.234722,10.24502 0,8.61731 2.612672,16.76859 7.214659,23.2791 4.601281,6.51017 11.19752,11.38026 19.151248,13.41685 2.672292,0.68404 5.356931,1.01283 8.011231,1.01283 16.227426,-0.003 31.263517,-12.26256 35.655957,-30.34419 l -0.3429,-0.0829"
       style="fill:#f04624;fill-opacity:1;fill-rule:nonzero;stroke:none;stroke-width:0.0352778"
       id="path138"
       inkscape:export-filename="/home/sime/Downloads/logo_nero.png"
       inkscape:export-xdpi="300"
       inkscape:export-ydpi="300" />
    <path
       d="m 110.44931,134.57081 -0.35031,-0.043 c -2.41159,19.63773 -18.434754,34.08327 -36.763325,34.08115 -1.416756,0 -2.847622,-0.0861 -4.286956,-0.26246 -9.236781,-1.13454 -17.221201,-5.79614 -22.903393,-12.56383 -5.680781,-6.76734 -9.053689,-15.6397 -9.053689,-25.18587 3.52e-4,-1.64782 0.100188,-3.3154 0.307622,-4.99498 2.411236,-19.63808 18.434051,-34.083978 36.762622,-34.081861 1.416402,0 2.846564,0.08572 4.287661,0.263172 9.236781,1.134534 17.221201,5.795434 22.902688,12.563479 5.68078,6.76769 9.05298,15.6397 9.05298,25.18622 -3.5e-4,1.64711 -0.10054,3.31434 -0.30621,4.99533 l 0.35031,0.0427 0.35031,0.0427 c 0.20884,-1.70885 0.31115,-3.40501 0.3108,-5.0807 0,-9.71339 -3.43042,-18.74556 -9.21773,-25.6399 C 96.106071,96.998205 87.957962,92.239233 78.53562,91.082827 77.0663,90.902205 75.606858,90.814363 74.161881,90.814363 c -18.708513,0.0021 -35.01108,14.728117 -37.462886,34.700987 -0.210961,1.7085 -0.312914,3.40501 -0.312561,5.08141 0,9.71303 3.431117,18.74485 9.218789,25.63954 5.786614,6.89469 13.935429,11.65366 23.357771,12.81007 1.467556,0.17992 2.92735,0.26811 4.372681,0.26811 18.708865,-0.002 35.011075,-14.72777 37.463945,-34.70064 l -0.35031,-0.043"
       style="fill:#f04624;fill-opacity:1;fill-rule:nonzero;stroke:none;stroke-width:0.0352778"
       id="path140"
       inkscape:export-filename="/home/sime/Downloads/logo_nero.png"
       inkscape:export-xdpi="300"
       inkscape:export-ydpi="300" />
    <path
       d="m 112.67111,130.06477 h -0.35278 c -3.6e-4,10.65142 -4.31659,20.29143 -11.29665,27.27255 -6.98077,6.98006 -16.620777,11.2963 -27.272549,11.2963 -10.651773,0 -20.29178,-4.31624 -27.272194,-11.2963 -6.980414,-6.98112 -11.296651,-16.62077 -11.297003,-27.27255 3.52e-4,-10.65177 4.316589,-20.29177 11.297003,-27.27254 6.980414,-6.980063 16.620421,-11.296653 27.272194,-11.296653 10.651772,0 20.291779,4.31659 27.272549,11.296653 6.98006,6.98077 11.29629,16.62077 11.29665,27.27254 h 0.35278 0.35242 c 0,-21.69089 -17.583504,-39.274395 -39.274399,-39.274748 -21.690896,3.53e-4 -39.2744,17.583858 -39.2744,39.274748 0,21.6909 17.583504,39.2744 39.2744,39.2744 21.690895,0 39.274399,-17.5835 39.274399,-39.2744 h -0.35242"
       style="fill:#f04624;fill-opacity:1;fill-rule:nonzero;stroke:none;stroke-width:0.0352778"
       id="path142"
       inkscape:export-filename="/home/sime/Downloads/logo_nero.png"
       inkscape:export-xdpi="300"
       inkscape:export-ydpi="300" />
    <path
       style="font-size:48px;font-family:'Futurist Fixed-width';-inkscape-font-specification:'Futurist Fixed-width';white-space:pre;fill:#ffffff"
       d="m 235.48109,388.7663 -3.168,1.872 q -0.384,-1.344 -1.968,-2.208 -1.536,-0.912 -3.312,-0.912 -1.248,0 -2.208,0.528 -0.96,0.48 -1.296,1.344 -0.288,0.816 -0.288,1.344 0,1.248 1.44,2.448 l 7.488,2.64 q 1.68,0.72 2.544,2.112 0.864,1.392 0.864,3.024 0,2.112 -1.248,3.984 -1.2,1.824 -3.312,2.592 -0.768,0.192 -1.776,0.336 -0.96,0.144 -1.776,0.144 -2.688,0 -5.04,-1.056 -2.304,-1.104 -3.936,-3.264 l 3.36,-2.256 q 0.768,1.584 2.304,2.544 1.536,0.96 3.312,0.96 1.68,0 2.688,-0.72 1.056,-0.72 1.344,-1.296 0.288,-0.576 0.288,-1.2 0,-1.008 -0.672,-1.824 -0.672,-0.864 -1.872,-1.296 -2.304,-0.672 -4.848,-1.488 -2.496,-0.816 -3.6,-2.352 -1.392,-1.776 -1.392,-3.792 0,-3.12 2.016,-4.512 2.064,-1.44 3.6,-1.728 1.584,-0.288 3.696,-0.288 2.304,0.192 3.84,1.248 1.584,1.056 2.928,3.072 z m 51.11991,7.632 q 0,4.464 -2.496,7.824 -2.496,3.312 -4.896,3.552 -2.352,0.288 -3.072,0.288 -1.776,0 -3.408,-0.576 -1.632,-0.576 -2.592,-1.344 -0.96,-0.816 -1.536,-1.488 -0.576,-0.72 -0.912,-1.44 v 14.928 h -3.984 v -33.024 h 3.888 v 4.8 q 1.2,-2.496 3.456,-3.936 2.256,-1.44 5.088,-1.44 0.288,0 0.576,0 0.432,0.096 2.688,0.528 2.256,0.432 4.704,3.648 2.496,3.216 2.496,7.68 z m -10.224,8.208 q 2.784,-0.528 4.368,-2.976 1.584,-2.496 1.584,-5.568 0,-3.216 -1.728,-5.472 -1.728,-2.256 -4.992,-2.256 -3.504,0 -5.712,2.448 -2.208,2.448 -2.208,5.952 0,3.36 2.112,5.664 2.112,2.304 5.328,2.304 0.288,0 0.672,-0.048 0.384,-0.048 0.576,-0.048 z m 54.04791,-18.528 -2.304,3.168 q -1.248,-1.104 -2.592,-1.104 -1.872,0 -3.408,1.872 -1.536,1.824 -2.016,4.032 v 13.392 h -3.888 v -22.128 h 3.6 v 5.424 q 0.624,-2.208 2.208,-3.984 1.632,-1.824 3.744,-2.112 2.496,0 4.656,1.44 z m 40.65591,-8.832 q -0.48,0.096 -0.72,0.096 -1.152,0 -1.92,-0.816 -0.72,-0.864 -0.72,-2.016 0,-0.72 0.288,-1.248 0.336,-0.576 1.104,-0.96 0.336,-0.096 0.768,-0.24 0.48,-0.144 0.864,-0.048 1.104,0.144 1.728,0.912 0.624,0.768 0.624,1.728 0,2.016 -2.016,2.592 z m 1.296,30.192 h -3.984 v -22.224 h 3.984 z m 52.46391,-18.96 h -3.984 v 18.96 h -3.888 v -18.96 h -3.504 v -3.072 h 3.504 v -8.976 h 3.888 v 8.976 h 3.984 z m 51.16791,18.96 h -19.872 v -1.104 l 14.112,-18.096 h -13.44 v -3.12 h 19.104 v 1.248 l -13.68,17.904 h 13.776 z m 54.7199,0 h -4.08 v -16.128 q 0,-0.432 -0.288,-0.96 -0.288,-0.528 -0.432,-0.816 -0.768,-0.768 -1.584,-1.104 -0.816,-0.336 -1.728,-0.336 -1.872,0 -3.456,1.44 -1.584,1.44 -2.064,3.552 v 14.352 h -4.032 v -15.024 q -0.288,-2.016 -1.536,-3.168 -1.2,-1.2 -3.024,-1.2 -0.864,0 -1.824,0.288 -1.248,0.528 -2.16,1.584 -0.912,1.056 -1.392,2.448 v 15.072 h -3.792 v -22.32 h 3.696 v 3.84 q 1.008,-1.872 2.64,-3.072 1.632,-1.248 3.696,-1.248 0.24,-0.048 0.72,-0.048 2.208,0 3.888,1.344 1.728,1.344 2.496,3.504 0.912,-2.208 2.928,-3.504 2.064,-1.344 4.464,-1.344 1.728,0 3.168,0.72 1.488,0.672 2.592,2.16 0.864,1.008 1.104,2.448 z m 41.95191,0 h -3.6 v -4.416 q -1.2,2.352 -3.648,3.696 -2.448,1.296 -5.136,1.296 -1.344,0 -2.592,-0.288 -1.248,-0.288 -3.168,-1.488 -1.92,-1.2 -3.456,-4.032 -1.488,-2.832 -1.488,-6.048 0,-2.688 1.152,-5.232 0.816,-1.584 2.64,-3.6 1.872,-2.064 5.376,-2.688 0.384,0 0.816,-0.048 0.48,-0.048 0.72,-0.048 2.688,0 4.896,1.2 2.256,1.2 3.792,3.504 v -4.128 h 3.696 z m -4.512,-7.104 q 0.72,-1.824 0.72,-3.84 0,-2.688 -1.248,-4.8 -1.248,-2.112 -3.744,-3.12 -0.864,-0.24 -2.112,-0.288 -1.248,-0.048 -1.44,-0.048 -3.072,0.48 -4.944,3.024 -1.872,2.496 -1.872,5.52 0,1.872 0.672,3.456 0.72,1.536 2.544,3.024 1.824,1.44 4.512,1.44 2.256,0 4.08,-1.104 1.824,-1.152 2.832,-3.264 z m 48.67191,-11.856 h -3.984 v 18.96 h -3.888 v -18.96 h -3.504 v -3.072 h 3.504 v -8.976 h 3.888 v 8.976 h 3.984 z m 47.99991,0 h -3.984 v 18.96 h -3.888 v -18.96 h -3.504 v -3.072 h 3.504 v -8.976 h 3.888 v 8.976 h 3.984 z m 52.51191,13.728 q -2.016,2.688 -4.896,4.224 -2.88,1.536 -6.096,1.536 -3.072,0 -5.856,-1.488 -2.592,-1.68 -3.936,-4.368 -1.344,-2.688 -1.344,-5.856 0,-4.272 2.448,-7.632 2.496,-3.408 5.088,-3.792 2.64,-0.432 3.6,-0.432 3.072,0 5.712,1.392 2.688,1.392 3.936,4.272 1.248,2.832 1.248,6.672 h -18.096 q 0,3.264 2.064,5.616 2.064,2.352 5.184,2.352 0.96,0 1.728,-0.192 1.92,-0.288 3.312,-1.344 1.392,-1.104 2.736,-2.928 z m -3.984,-8.352 q -0.528,-2.688 -2.544,-4.368 -2.016,-1.728 -4.752,-1.728 -2.448,0 -4.32,1.824 -1.824,1.776 -2.4,4.272 z m 49.05594,-7.776 -2.304,3.168 q -1.248,-1.104 -2.592,-1.104 -1.872,0 -3.408,1.872 -1.536,1.824 -2.016,4.032 v 13.392 h -3.888 v -22.128 h 3.6 v 5.424 q 0.624,-2.208 2.208,-3.984 1.632,-1.824 3.744,-2.112 2.496,0 4.656,1.44 z"
       id="text1"
       transform="matrix(0.26458333,0,0,0.26458333,-55.706537,80.688067)"
       aria-label="spritzmatter" />
  </g>
</svg>
