<svg xmlns="http://www.w3.org/2000/svg" xmlns:xlink="http://www.w3.org/1999/xlink" width="1933" zoomAndPan="magnify" viewBox="0 0 1449.75 724.499978" height="966" preserveAspectRatio="xMidYMid meet" version="1.2"><defs/><g id="b81f09e887"><path style=" stroke:none;fill-rule:nonzero;fill:#f04624;fill-opacity:1;" d="M 600.398438 242.492188 L 602.648438 242.6875 C 608.304688 177.464844 661.347656 128.175781 723.253906 128.1875 C 726.566406 128.1875 729.898438 128.328125 733.261719 128.617188 C 764.503906 131.285156 791.863281 146.101562 811.449219 168.257812 C 831.027344 190.410156 842.800781 219.882812 842.800781 251.820312 C 842.796875 255.5625 842.636719 259.339844 842.3125 263.152344 C 836.65625 328.371094 783.609375 377.652344 721.699219 377.644531 C 718.390625 377.644531 715.046875 377.503906 711.695312 377.21875 C 680.453125 374.546875 653.09375 359.730469 633.507812 337.574219 C 613.925781 315.421875 602.152344 285.945312 602.152344 254.007812 C 602.152344 250.265625 602.308594 246.488281 602.648438 242.691406 L 600.398438 242.492188 L 598.144531 242.292969 C 597.796875 246.226562 597.632812 250.136719 597.632812 254.007812 C 597.632812 287.0625 609.820312 317.597656 630.117188 340.570312 C 650.417969 363.539062 678.859375 378.953125 711.3125 381.722656 C 714.792969 382.015625 718.257812 382.164062 721.699219 382.164062 C 786.066406 382.15625 840.964844 331.011719 846.816406 263.539062 C 847.152344 259.601562 847.320312 255.695312 847.320312 251.820312 C 847.320312 218.765625 835.136719 188.230469 814.835938 165.265625 C 794.539062 142.296875 766.097656 126.878906 733.648438 124.113281 C 730.160156 123.8125 726.691406 123.667969 723.257812 123.667969 C 658.890625 123.679688 603.992188 174.824219 598.144531 242.296875 L 600.398438 242.492188 "/><path style=" stroke:none;fill-rule:nonzero;fill:#f04624;fill-opacity:1;" d="M 593.59375 257.449219 L 595.851562 257.359375 C 595.789062 255.789062 595.757812 254.222656 595.757812 252.667969 C 595.753906 185.917969 649.425781 130.628906 717.792969 128.230469 C 719.332031 128.179688 720.863281 128.144531 722.390625 128.144531 C 790.308594 128.144531 846.585938 181.148438 849.109375 248.472656 C 849.171875 250.039062 849.195312 251.601562 849.199219 253.167969 C 849.199219 319.910156 795.527344 375.199219 727.167969 377.605469 C 725.632812 377.65625 724.09375 377.683594 722.566406 377.683594 C 654.648438 377.683594 598.367188 324.679688 595.851562 257.363281 L 593.59375 257.445312 L 591.332031 257.53125 C 593.957031 327.339844 652.265625 382.203125 722.566406 382.203125 C 724.144531 382.203125 725.734375 382.179688 727.328125 382.125 C 798.074219 379.636719 853.714844 322.394531 853.714844 253.164062 C 853.714844 251.550781 853.691406 249.929688 853.628906 248.300781 C 850.992188 178.484375 792.691406 123.625 722.390625 123.625 C 720.808594 123.625 719.222656 123.65625 717.632812 123.710938 C 646.875 126.195312 591.242188 183.433594 591.238281 252.664062 C 591.238281 254.28125 591.273438 255.90625 591.332031 257.535156 L 593.59375 257.445312 "/><path style=" stroke:none;fill-rule:nonzero;fill:#f04624;fill-opacity:1;" d="M 588.402344 273.121094 L 590.628906 272.742188 C 589.507812 266.128906 588.960938 259.554688 588.957031 253.066406 C 588.949219 192.878906 635.722656 139.652344 701.546875 129.730469 C 708.753906 128.648438 715.910156 128.121094 722.972656 128.117188 C 755.191406 128.117188 785.449219 139.054688 808.941406 157.648438 C 832.433594 176.246094 849.136719 202.464844 854.332031 233.089844 C 855.453125 239.707031 855.996094 246.277344 855.996094 252.765625 C 856.007812 312.949219 809.226562 366.175781 743.410156 376.105469 C 736.207031 377.1875 729.046875 377.714844 721.984375 377.714844 C 689.761719 377.714844 659.5 366.777344 636.011719 348.183594 C 612.523438 329.585938 595.820312 303.371094 590.628906 272.742188 L 588.402344 273.121094 L 586.171875 273.5 C 591.558594 305.296875 608.914062 332.503906 633.207031 351.726562 C 657.496094 370.953125 688.738281 382.234375 721.984375 382.234375 C 729.269531 382.234375 736.65625 381.691406 744.082031 380.574219 C 811.953125 370.351562 860.503906 315.355469 860.515625 252.765625 C 860.515625 246.023438 859.953125 239.199219 858.789062 232.335938 C 853.394531 200.535156 836.035156 173.328125 811.746094 154.105469 C 787.453125 134.875 756.214844 123.601562 722.972656 123.601562 C 715.683594 123.597656 708.300781 124.144531 700.878906 125.261719 C 633 135.480469 584.449219 190.472656 584.441406 253.066406 C 584.4375 259.808594 585.007812 266.636719 586.171875 273.5 L 588.402344 273.121094 "/><path style=" stroke:none;fill-rule:nonzero;fill:#f04624;fill-opacity:1;" d="M 584.988281 289.3125 L 587.140625 288.632812 C 583.640625 277.492188 581.96875 266.261719 581.96875 255.191406 C 581.957031 200.667969 622.492188 149.691406 684.75 133.207031 C 698.25 129.636719 711.839844 127.933594 725.164062 127.929688 C 755.453125 127.929688 784.394531 136.726562 807.859375 152.289062 C 831.328125 167.851562 849.3125 190.148438 857.820312 217.203125 C 861.316406 228.34375 862.984375 239.570312 862.988281 250.644531 C 863 305.164062 822.457031 356.140625 760.210938 372.628906 C 746.710938 376.203125 733.121094 377.898438 719.796875 377.902344 C 689.503906 377.902344 660.5625 369.105469 637.09375 353.542969 C 613.625 337.980469 595.644531 315.683594 587.140625 288.636719 L 584.988281 289.3125 L 582.832031 289.988281 C 591.667969 318.113281 610.363281 341.242188 634.597656 357.308594 C 658.835938 373.382812 688.628906 382.417969 719.796875 382.417969 C 733.503906 382.421875 747.484375 380.671875 761.367188 376.996094 C 825.359375 360.058594 867.492188 307.464844 867.503906 250.644531 C 867.507812 239.117188 865.769531 227.425781 862.128906 215.847656 C 853.289062 187.71875 834.59375 164.589844 810.359375 148.523438 C 786.117188 132.453125 756.328125 123.414062 725.164062 123.414062 C 711.453125 123.410156 697.476562 125.164062 683.59375 128.839844 C 619.59375 145.769531 577.460938 198.367188 577.449219 255.191406 C 577.449219 266.71875 579.191406 278.410156 582.832031 289.988281 L 584.988281 289.3125 "/><path style=" stroke:none;fill-rule:nonzero;fill:#f04624;fill-opacity:1;" d="M 583.496094 305.796875 L 585.535156 304.820312 C 578.371094 289.847656 574.984375 274.265625 574.980469 258.804688 C 574.96875 209.253906 609.847656 160.695312 667.625 138.714844 C 687.847656 131.015625 708.804688 127.371094 729.238281 127.371094 C 757.292969 127.371094 784.34375 134.242188 807.117188 146.890625 C 829.894531 159.539062 848.378906 177.9375 859.425781 201.015625 C 866.585938 215.988281 869.972656 231.566406 869.976562 247.03125 C 869.988281 296.578125 835.101562 345.136719 777.335938 367.121094 C 757.109375 374.816406 736.152344 378.460938 715.71875 378.460938 C 687.664062 378.460938 660.605469 371.585938 637.835938 358.941406 C 615.058594 346.289062 596.574219 327.894531 585.535156 304.820312 L 581.457031 306.773438 C 592.945312 330.785156 612.152344 349.851562 635.640625 362.890625 C 659.136719 375.933594 686.925781 382.976562 715.71875 382.980469 C 736.6875 382.980469 758.191406 379.242188 778.945312 371.347656 C 838.1875 348.808594 874.480469 298.753906 874.492188 247.03125 C 874.496094 230.90625 870.953125 214.636719 863.503906 199.066406 C 852.007812 175.046875 832.800781 155.980469 809.308594 142.941406 C 785.816406 129.894531 758.027344 122.851562 729.238281 122.851562 C 708.269531 122.851562 686.769531 126.59375 666.015625 134.488281 C 606.761719 157.023438 570.472656 207.078125 570.464844 258.804688 C 570.460938 274.929688 574.003906 291.195312 581.457031 306.773438 L 583.496094 305.796875 "/><path style=" stroke:none;fill-rule:nonzero;fill:#f04624;fill-opacity:1;" d="M 584.058594 322.339844 L 585.929688 321.078125 C 573.875 303.144531 568.179688 283.484375 568.175781 263.6875 C 568.164062 218.574219 597.890625 172.613281 650.414062 146.269531 C 677.480469 132.695312 706.878906 126.210938 735.273438 126.210938 C 786.148438 126.207031 833.675781 147.019531 859.03125 184.757812 C 871.085938 202.691406 876.773438 222.347656 876.78125 242.144531 C 876.789062 287.253906 847.058594 333.214844 794.542969 359.5625 C 767.476562 373.140625 738.082031 379.621094 709.683594 379.621094 C 658.804688 379.625 611.273438 358.808594 585.929688 321.078125 L 584.058594 322.339844 L 582.183594 323.601562 C 608.621094 362.882812 657.625 384.136719 709.683594 384.140625 C 738.765625 384.140625 768.84375 377.507812 796.570312 363.605469 C 850.332031 336.640625 881.285156 289.289062 881.296875 242.144531 C 881.300781 221.480469 875.328125 200.886719 862.777344 182.234375 C 836.332031 142.945312 787.328125 121.695312 735.273438 121.691406 C 706.191406 121.691406 676.117188 128.328125 648.390625 142.230469 C 594.617188 169.191406 563.671875 216.542969 563.660156 263.6875 C 563.65625 284.351562 569.628906 304.945312 582.183594 323.601562 L 584.058594 322.339844 "/><path style=" stroke:none;fill-rule:nonzero;fill:#f04624;fill-opacity:1;" d="M 586.761719 338.691406 L 588.433594 337.167969 C 570.332031 317.316406 561.71875 293.820312 561.710938 269.644531 C 561.703125 228.566406 586.726562 185.375 633.402344 155.878906 C 666.992188 134.644531 705.964844 124.21875 743.082031 124.222656 C 787.847656 124.21875 829.820312 139.378906 856.53125 168.667969 C 874.625 188.515625 883.234375 212.011719 883.242188 236.1875 C 883.253906 277.265625 858.230469 320.453125 811.5625 349.957031 C 777.96875 371.191406 738.996094 381.613281 701.875 381.613281 C 657.101562 381.613281 615.128906 366.453125 588.433594 337.167969 L 586.761719 338.691406 L 585.09375 340.214844 C 612.898438 370.671875 656.117188 386.128906 701.875 386.128906 C 739.835938 386.128906 779.609375 375.496094 813.980469 353.78125 C 861.6875 323.621094 887.753906 279.140625 887.761719 236.1875 C 887.769531 210.933594 878.703125 186.25 859.867188 165.617188 C 832.050781 135.160156 788.835938 119.707031 743.082031 119.703125 C 705.125 119.707031 665.351562 130.339844 630.984375 152.054688 C 583.265625 182.210938 557.203125 226.6875 557.191406 269.644531 C 557.1875 294.898438 566.253906 319.582031 585.09375 340.214844 L 586.761719 338.691406 "/><path style=" stroke:none;fill-rule:nonzero;fill:#f04624;fill-opacity:1;" d="M 591.691406 354.59375 L 593.117188 352.839844 C 567.914062 332.28125 555.75 305.183594 555.730469 276.453125 C 555.722656 239.113281 576.441406 198.894531 616.839844 167.492188 C 656.136719 136.933594 705.785156 121.214844 752.152344 121.222656 C 790.082031 121.21875 825.753906 131.726562 851.84375 152.996094 C 877.050781 173.554688 889.207031 200.648438 889.222656 229.378906 C 889.230469 266.71875 868.507812 306.9375 828.117188 338.34375 C 788.820312 368.898438 739.171875 384.617188 692.800781 384.609375 C 654.867188 384.613281 619.195312 374.101562 593.117188 352.839844 L 591.691406 354.59375 L 590.261719 356.34375 C 617.359375 378.421875 654.054688 389.128906 692.800781 389.132812 C 740.179688 389.125 790.722656 373.128906 830.894531 341.910156 C 872.148438 309.832031 893.738281 268.417969 893.742188 229.378906 C 893.761719 199.359375 880.894531 170.8125 854.699219 149.492188 C 827.589844 127.410156 790.898438 116.703125 752.152344 116.703125 C 704.777344 116.707031 654.238281 132.703125 614.066406 163.925781 C 572.804688 195.996094 551.21875 237.410156 551.214844 276.453125 C 551.195312 306.472656 564.0625 335.023438 590.261719 356.34375 L 591.691406 354.59375 "/><path style=" stroke:none;fill-rule:nonzero;fill:#f04624;fill-opacity:1;" d="M 598.875 369.773438 L 600.035156 367.835938 C 583.398438 357.894531 571.003906 345.28125 562.742188 330.984375 C 554.484375 316.683594 550.355469 300.679688 550.355469 283.890625 C 550.351562 250.105469 567.136719 213.078125 601.027344 181.042969 C 644.660156 139.769531 705.890625 117.085938 761.765625 117.097656 C 792.359375 117.097656 821.316406 123.886719 844.925781 138 C 861.554688 147.945312 873.953125 160.550781 882.214844 174.851562 C 890.464844 189.148438 894.59375 205.152344 894.597656 221.945312 C 894.601562 255.726562 877.816406 292.753906 843.933594 324.789062 C 800.300781 366.0625 739.0625 388.746094 683.1875 388.734375 C 652.589844 388.734375 623.636719 381.945312 600.035156 367.835938 L 598.875 369.773438 L 597.710938 371.714844 C 622.175781 386.332031 651.929688 393.25 683.1875 393.253906 C 740.265625 393.238281 802.449219 370.207031 847.039062 328.078125 C 881.625 295.371094 899.109375 257.242188 899.117188 221.945312 C 899.117188 204.410156 894.789062 187.59375 886.125 172.589844 C 877.460938 157.585938 864.472656 144.414062 847.246094 134.121094 C 822.773438 119.5 793.015625 112.582031 761.765625 112.582031 C 704.691406 112.59375 642.507812 135.625 597.921875 177.757812 C 563.324219 210.460938 545.839844 248.589844 545.835938 283.890625 C 545.835938 301.421875 550.164062 318.242188 558.828125 333.242188 C 567.496094 348.25 580.484375 361.417969 597.710938 371.714844 L 598.875 369.773438 "/><path style=" stroke:none;fill-rule:nonzero;fill:#f04624;fill-opacity:1;" d="M 608.328125 383.964844 L 609.203125 381.882812 C 588.15625 373.035156 572.308594 360.167969 561.691406 344.703125 C 551.082031 329.234375 545.683594 311.144531 545.679688 291.722656 C 545.679688 261.410156 558.882812 227.824219 586.238281 196.425781 C 632.355469 143.4375 705.742188 111.8125 771.164062 111.835938 C 794.203125 111.835938 816.238281 115.742188 835.757812 123.953125 C 856.804688 132.800781 872.652344 145.664062 883.265625 161.128906 C 893.875 176.597656 899.273438 194.6875 899.277344 214.113281 C 899.28125 244.417969 886.074219 278.003906 858.71875 309.410156 C 812.601562 362.398438 739.210938 394.019531 673.792969 393.996094 C 650.753906 393.996094 628.714844 390.085938 609.203125 381.882812 L 608.328125 383.96875 L 607.453125 386.050781 C 627.613281 394.523438 650.242188 398.511719 673.792969 398.511719 C 740.636719 398.488281 815 366.441406 862.128906 312.378906 C 890.046875 280.324219 903.792969 245.746094 903.796875 214.113281 C 903.800781 193.851562 898.140625 174.808594 886.992188 158.574219 C 875.851562 142.335938 859.25 128.917969 837.507812 119.785156 C 817.335938 111.308594 794.710938 107.320312 771.164062 107.320312 C 704.320312 107.347656 629.960938 139.390625 582.828125 193.457031 C 554.90625 225.503906 541.164062 260.085938 541.164062 291.722656 C 541.160156 311.980469 546.820312 331.023438 557.964844 347.261719 C 569.109375 363.5 585.710938 376.914062 607.453125 386.050781 L 608.328125 383.96875 "/><path style=" stroke:none;fill-rule:nonzero;fill:#f04624;fill-opacity:1;" d="M 620.027344 396.902344 L 620.613281 394.71875 C 594.847656 387.789062 575.175781 375.132812 561.917969 358.703125 C 548.667969 342.261719 541.78125 322.019531 541.777344 299.679688 C 541.773438 272.859375 551.742188 243.015625 572.761719 213.496094 C 595.960938 180.882812 628.945312 153.851562 665.527344 135.007812 C 702.105469 116.15625 742.265625 105.5 779.726562 105.5 C 795.207031 105.5 810.21875 107.316406 824.34375 111.117188 C 850.113281 118.042969 869.78125 130.699219 883.039062 147.132812 C 896.289062 163.570312 903.171875 183.8125 903.175781 206.15625 C 903.179688 232.96875 893.207031 262.8125 872.203125 292.34375 C 849.003906 324.949219 816.011719 351.980469 779.429688 370.824219 C 742.851562 389.675781 702.6875 400.332031 665.226562 400.328125 C 649.746094 400.328125 634.726562 398.511719 620.613281 394.71875 L 620.027344 396.902344 L 619.441406 399.082031 C 633.984375 402.992188 649.394531 404.847656 665.226562 404.847656 C 703.542969 404.847656 744.339844 393.984375 781.5 374.84375 C 818.660156 355.695312 852.191406 328.253906 875.886719 294.960938 C 897.324219 264.816406 907.691406 234.097656 907.695312 206.15625 C 907.699219 182.886719 900.484375 161.550781 886.558594 144.292969 C 872.636719 127.03125 852.054688 113.878906 825.519531 106.753906 C 810.964844 102.839844 795.554688 100.984375 779.726562 100.984375 C 741.410156 100.984375 700.613281 111.847656 663.457031 130.988281 C 626.300781 150.136719 592.773438 177.578125 569.078125 210.875 C 547.621094 241.011719 537.261719 271.734375 537.257812 299.679688 C 537.25 322.945312 544.472656 344.28125 558.398438 361.539062 C 572.320312 378.800781 592.902344 391.957031 619.441406 399.085938 L 620.027344 396.902344 "/><path style=" stroke:none;fill-rule:nonzero;fill:#f04624;fill-opacity:1;" d="M 633.910156 408.316406 L 634.210938 406.074219 C 603.527344 401.953125 579.683594 390.011719 563.496094 372.8125 C 547.308594 355.605469 538.699219 333.101562 538.6875 307.480469 C 538.6875 284.285156 545.777344 258.535156 560.867188 232.078125 C 582.960938 193.300781 618.355469 159.785156 658.832031 136.011719 C 699.300781 112.234375 744.835938 98.207031 787.078125 98.214844 C 795.105469 98.214844 803.011719 98.71875 810.75 99.761719 C 841.429688 103.882812 865.273438 115.824219 881.464844 133.019531 C 897.644531 150.226562 906.257812 172.730469 906.269531 198.355469 C 906.269531 221.542969 899.175781 247.289062 884.09375 273.761719 C 862 312.53125 826.601562 346.046875 786.125 369.820312 C 745.652344 393.597656 700.117188 407.625 657.875 407.617188 C 649.847656 407.617188 641.9375 407.109375 634.210938 406.074219 L 633.910156 408.316406 L 633.609375 410.554688 C 641.546875 411.617188 649.65625 412.136719 657.875 412.136719 C 701.117188 412.128906 747.332031 397.839844 788.414062 373.714844 C 829.488281 349.582031 865.441406 315.597656 888.019531 275.996094 C 903.417969 248.96875 910.785156 222.472656 910.785156 198.355469 C 910.800781 171.722656 901.765625 147.980469 884.753906 129.925781 C 867.75 111.855469 842.855469 99.507812 811.351562 95.28125 C 803.40625 94.210938 795.292969 93.695312 787.078125 93.695312 C 743.835938 93.703125 697.621094 107.992188 656.539062 132.117188 C 615.46875 156.25 579.515625 190.238281 556.941406 229.835938 C 541.535156 256.863281 534.167969 283.359375 534.167969 307.480469 C 534.15625 334.113281 543.191406 357.851562 560.203125 375.910156 C 577.207031 393.976562 602.101562 406.328125 633.609375 410.554688 L 633.910156 408.316406 "/><path style=" stroke:none;fill-rule:nonzero;fill:#f04624;fill-opacity:1;" d="M 649.878906 417.949219 L 649.902344 415.691406 C 614.222656 415.300781 585.878906 404.625 566.457031 386.859375 C 547.042969 369.082031 536.421875 344.175781 536.40625 314.789062 C 536.40625 295.488281 541.015625 274.257812 550.832031 251.964844 C 570.511719 207.199219 607.445312 166.671875 651.304688 137.402344 C 695.15625 108.121094 745.914062 90.121094 793.074219 90.132812 C 793.734375 90.132812 794.394531 90.136719 795.046875 90.144531 L 795.058594 90.144531 C 830.738281 90.53125 859.082031 101.210938 878.5 118.976562 C 897.914062 136.753906 908.53125 161.660156 908.546875 191.046875 C 908.546875 210.347656 903.933594 231.578125 894.128906 253.871094 C 874.445312 298.636719 837.515625 339.164062 793.652344 368.433594 C 749.796875 397.714844 699.039062 415.710938 651.878906 415.699219 C 651.21875 415.699219 650.554688 415.695312 649.894531 415.695312 L 649.878906 417.953125 L 649.859375 420.210938 C 650.523438 420.21875 651.199219 420.226562 651.878906 420.226562 C 700.191406 420.210938 751.679688 401.878906 796.164062 372.195312 C 840.636719 342.503906 878.132812 301.4375 898.269531 255.695312 C 908.285156 232.910156 913.0625 211.074219 913.0625 191.050781 C 913.078125 160.582031 901.945312 134.292969 881.550781 115.648438 C 861.164062 96.992188 831.644531 86.019531 795.105469 85.632812 L 795.121094 85.632812 C 794.425781 85.617188 793.746094 85.617188 793.078125 85.617188 C 744.765625 85.625 693.273438 103.964844 648.796875 133.652344 C 604.320312 163.34375 566.828125 204.40625 546.691406 250.152344 C 536.664062 272.933594 531.890625 294.773438 531.890625 314.796875 C 531.875 345.269531 543.007812 371.554688 563.40625 390.203125 C 583.796875 408.855469 613.3125 419.828125 649.851562 420.214844 L 649.878906 417.957031 "/><path style=" stroke:none;fill-rule:nonzero;fill:#f04624;fill-opacity:1;" d="M 667.800781 425.570312 L 667.558594 423.320312 C 660.726562 424.046875 654.101562 424.398438 647.699219 424.398438 C 612.851562 424.394531 584.691406 413.917969 565.238281 395.878906 C 545.789062 377.832031 534.914062 352.164062 534.898438 321.246094 C 534.898438 306.261719 537.46875 290.046875 542.898438 272.921875 C 557.816406 225.785156 591.5625 180.753906 634.0625 146.253906 C 676.554688 111.742188 727.769531 87.785156 777.402344 82.515625 C 784.234375 81.789062 790.859375 81.429688 797.257812 81.429688 C 832.105469 81.4375 860.261719 91.914062 879.714844 109.953125 C 899.160156 128 910.035156 153.664062 910.050781 184.585938 C 910.050781 199.570312 907.484375 215.78125 902.0625 232.914062 C 887.144531 280.050781 853.394531 325.082031 810.894531 359.582031 C 768.40625 394.09375 717.191406 418.050781 667.558594 423.320312 L 667.800781 425.570312 L 668.039062 427.816406 C 718.773438 422.410156 770.667969 398.058594 813.746094 363.089844 C 856.816406 328.109375 891.09375 282.492188 906.371094 234.277344 C 911.917969 216.757812 914.566406 200.089844 914.566406 184.585938 C 914.578125 152.613281 903.222656 125.574219 882.789062 106.636719 C 862.363281 87.691406 832.996094 76.910156 797.257812 76.914062 C 790.695312 76.914062 783.910156 77.277344 776.925781 78.019531 C 726.1875 83.425781 674.289062 107.777344 631.210938 142.746094 C 588.144531 177.726562 553.871094 223.347656 538.589844 271.558594 C 533.035156 289.074219 530.378906 305.742188 530.378906 321.246094 C 530.363281 353.214844 541.726562 380.257812 562.164062 399.195312 C 582.589844 418.136719 611.960938 428.925781 647.699219 428.917969 C 654.265625 428.917969 661.050781 428.554688 668.039062 427.816406 L 667.800781 425.570312 "/><path style=" stroke:none;fill-rule:nonzero;fill:#f04624;fill-opacity:1;" d="M 687.5 430.945312 L 687.011719 428.738281 C 672.519531 431.933594 658.753906 433.460938 645.855469 433.460938 C 611.894531 433.453125 584.003906 422.902344 564.574219 404.339844 C 545.15625 385.769531 534.078125 359.117188 534.0625 326.410156 C 534.0625 316.375 535.117188 305.777344 537.300781 294.679688 C 546.832031 246.101562 576.3125 197.296875 616.292969 157.863281 C 656.265625 118.429688 706.71875 88.386719 757.953125 77.097656 C 772.4375 73.902344 786.203125 72.375 799.101562 72.375 C 833.058594 72.378906 860.949219 82.933594 880.371094 101.492188 C 899.789062 120.058594 910.871094 146.710938 910.882812 179.414062 C 910.882812 189.449219 909.835938 200.050781 907.660156 211.152344 C 898.125 259.734375 868.648438 308.542969 828.667969 347.96875 C 788.691406 387.410156 738.242188 417.449219 687.011719 428.738281 L 687.5 430.945312 L 687.984375 433.152344 C 740.25 421.617188 791.328125 391.140625 831.839844 351.1875 C 872.34375 311.226562 902.308594 261.769531 912.09375 212.027344 C 914.324219 200.65625 915.398438 189.765625 915.398438 179.414062 C 915.410156 145.699219 903.890625 117.699219 883.496094 98.222656 C 863.109375 78.738281 833.976562 67.847656 799.101562 67.855469 C 785.847656 67.855469 771.753906 69.425781 756.976562 72.683594 C 704.710938 84.21875 653.632812 114.695312 613.121094 154.648438 C 572.617188 194.609375 542.652344 244.066406 532.867188 293.8125 C 530.628906 305.167969 529.546875 316.0625 529.546875 326.410156 C 529.535156 360.125 541.058594 388.128906 561.453125 407.609375 C 581.839844 427.09375 610.972656 437.984375 645.855469 437.976562 C 659.109375 437.976562 673.203125 436.414062 687.984375 433.152344 L 687.5 430.945312 "/><path style=" stroke:none;fill-rule:nonzero;fill:#f04624;fill-opacity:1;" d="M 708.769531 433.882812 L 708.046875 431.738281 C 686.019531 439.121094 665.191406 442.609375 646.136719 442.609375 C 612.566406 442.601562 584.542969 431.816406 564.863281 412.417969 C 545.191406 393.011719 533.753906 364.902344 533.742188 329.789062 C 533.746094 325.605469 533.90625 321.324219 534.246094 316.949219 L 534.246094 316.945312 C 537.972656 267.597656 562.496094 215.570312 599.214844 171.558594 C 635.921875 127.539062 684.789062 91.5625 736.910156 74.09375 C 758.9375 66.710938 779.765625 63.222656 798.820312 63.222656 C 832.386719 63.230469 860.410156 74.015625 880.085938 93.414062 C 899.753906 112.820312 911.191406 140.929688 911.203125 176.042969 C 911.199219 180.230469 911.042969 184.511719 910.714844 188.890625 C 906.988281 238.238281 882.464844 290.265625 845.746094 334.277344 C 809.039062 378.292969 760.171875 414.273438 708.046875 431.738281 L 708.769531 433.882812 L 709.484375 436.023438 C 762.570312 418.222656 812.015625 381.761719 849.214844 337.171875 C 886.402344 292.574219 911.375 239.824219 915.222656 189.230469 C 915.558594 184.738281 915.722656 180.34375 915.71875 176.042969 C 915.734375 139.960938 903.894531 110.53125 883.261719 90.195312 C 862.640625 69.851562 833.339844 58.695312 798.820312 58.703125 C 779.210938 58.703125 757.90625 62.289062 735.472656 69.8125 C 682.394531 87.613281 632.945312 124.074219 595.746094 168.664062 C 558.558594 213.261719 533.585938 266.007812 529.738281 316.605469 L 529.742188 316.601562 C 529.394531 321.089844 529.222656 325.488281 529.226562 329.789062 C 529.214844 365.867188 541.058594 395.300781 561.691406 415.636719 C 582.3125 435.976562 611.613281 447.136719 646.136719 447.125 C 665.746094 447.125 687.050781 443.542969 709.484375 436.023438 L 708.769531 433.882812 "/><path style=" stroke:none;fill-rule:nonzero;fill:#f04624;fill-opacity:1;" d="M 731.371094 434.203125 L 730.4375 432.148438 C 701.269531 445.378906 673.410156 451.609375 648.351562 451.609375 C 615.972656 451.601562 588.300781 441.242188 568.246094 422.121094 C 548.195312 402.996094 535.664062 375.027344 533.910156 339.402344 C 533.769531 336.5625 533.699219 333.707031 533.699219 330.839844 C 533.6875 282.316406 553.441406 229.5 585.980469 183.097656 C 618.503906 136.6875 663.777344 96.710938 714.527344 73.6875 C 743.6875 60.453125 771.546875 54.222656 796.605469 54.222656 C 828.976562 54.230469 856.644531 64.589844 876.703125 83.710938 C 896.753906 102.835938 909.289062 130.804688 911.054688 166.433594 C 911.1875 169.269531 911.253906 172.125 911.257812 174.992188 C 911.269531 223.515625 891.511719 276.328125 858.976562 322.730469 C 826.453125 369.144531 781.179688 409.121094 730.433594 432.148438 L 731.371094 434.203125 L 732.304688 436.261719 C 783.917969 412.832031 829.71875 372.339844 862.675781 325.328125 C 895.625 278.308594 915.765625 224.746094 915.773438 174.992188 C 915.773438 172.050781 915.707031 169.125 915.566406 166.214844 C 913.777344 129.65625 900.8125 100.445312 879.820312 80.441406 C 858.839844 60.425781 829.929688 49.695312 796.605469 49.703125 C 770.792969 49.703125 742.320312 56.113281 712.65625 69.574219 C 661.039062 93.003906 615.234375 133.492188 582.277344 180.503906 C 549.328125 227.523438 529.191406 281.085938 529.179688 330.839844 C 529.175781 333.785156 529.253906 336.710938 529.398438 339.625 C 531.175781 376.175781 544.136719 405.386719 565.125 425.390625 C 586.105469 445.40625 615.019531 456.136719 648.351562 456.128906 C 674.164062 456.128906 702.640625 449.71875 732.304688 436.261719 L 731.371094 434.203125 "/><path style=" stroke:none;fill-rule:nonzero;fill:#f04624;fill-opacity:1;" d="M 755.023438 431.769531 L 753.890625 429.8125 C 718.285156 450.46875 683.378906 460.242188 652.296875 460.242188 C 622.8125 460.238281 596.785156 451.464844 576.660156 434.828125 C 556.539062 418.179688 542.246094 393.621094 536.441406 361.71875 C 534.5625 351.40625 533.648438 340.738281 533.648438 329.847656 C 533.644531 283.855469 549.890625 233.746094 577.726562 188.46875 C 605.558594 143.191406 644.957031 102.761719 691.070312 76.019531 C 726.675781 55.367188 761.578125 45.585938 792.65625 45.589844 C 822.140625 45.59375 848.164062 54.363281 868.292969 71.003906 C 888.414062 87.652344 902.707031 112.210938 908.523438 144.113281 C 910.398438 154.429688 911.304688 165.09375 911.304688 175.984375 C 911.3125 221.972656 895.066406 272.085938 867.226562 317.363281 C 839.398438 362.640625 799.996094 403.066406 753.890625 429.8125 L 755.023438 431.769531 L 756.15625 433.722656 C 803.007812 406.539062 842.878906 365.597656 871.078125 319.726562 C 899.273438 273.855469 915.816406 223.039062 915.824219 175.984375 C 915.824219 164.839844 914.898438 153.90625 912.96875 143.304688 C 907.011719 110.523438 892.1875 84.894531 871.171875 67.519531 C 850.160156 50.140625 823.027344 41.0625 792.65625 41.070312 C 760.628906 41.074219 724.976562 51.128906 688.804688 72.109375 C 641.949219 99.292969 602.078125 140.230469 573.875 186.101562 C 545.683594 231.972656 529.136719 282.789062 529.132812 329.847656 C 529.132812 340.992188 530.0625 351.925781 531.992188 362.527344 C 537.945312 395.308594 552.765625 420.9375 573.78125 438.308594 C 594.789062 455.691406 621.921875 464.769531 652.296875 464.761719 C 684.328125 464.757812 719.984375 454.707031 756.15625 433.722656 L 755.023438 431.769531 "/><path style=" stroke:none;fill-rule:nonzero;fill:#f04624;fill-opacity:1;" d="M 779.421875 426.46875 L 778.105469 424.636719 C 737.050781 454.148438 695.046875 468.316406 657.773438 468.316406 C 630.945312 468.308594 606.578125 460.996094 586.625 446.78125 C 566.675781 432.5625 551.089844 411.425781 541.9375 383.550781 C 536.113281 365.796875 533.328125 346.59375 533.328125 326.617188 C 533.324219 283.445312 546.34375 236.683594 569.566406 193.429688 C 592.785156 150.171875 626.195312 110.425781 666.855469 81.199219 C 707.90625 51.6875 749.910156 37.511719 787.179688 37.519531 C 814.007812 37.523438 838.371094 44.835938 858.328125 59.050781 C 878.28125 73.269531 893.867188 94.40625 903.019531 122.285156 C 908.84375 140.039062 911.625 159.242188 911.625 179.21875 C 911.632812 222.390625 898.613281 269.148438 875.386719 312.402344 C 852.171875 355.660156 818.761719 395.40625 778.105469 424.636719 L 779.421875 426.46875 L 780.742188 428.304688 C 822.019531 398.621094 855.839844 358.371094 879.371094 314.539062 C 902.894531 270.710938 916.140625 223.296875 916.144531 179.21875 C 916.144531 158.824219 913.308594 139.144531 907.3125 120.875 C 897.90625 92.195312 881.734375 70.171875 860.949219 55.371094 C 840.167969 40.5625 814.820312 32.992188 787.179688 32.996094 C 748.757812 33.003906 705.890625 47.570312 664.21875 77.53125 C 622.933594 107.210938 589.109375 147.460938 565.582031 191.292969 C 542.058594 235.125 528.816406 282.535156 528.8125 326.617188 C 528.8125 347.011719 531.652344 366.695312 537.644531 384.957031 C 547.046875 413.636719 563.214844 435.660156 584 450.460938 C 604.78125 465.269531 630.128906 472.835938 657.773438 472.835938 C 696.195312 472.828125 739.0625 458.265625 780.742188 428.304688 L 779.421875 426.46875 "/><path style=" stroke:none;fill-rule:nonzero;fill:#f04624;fill-opacity:1;" d="M 804.238281 418.238281 L 802.746094 416.539062 C 757.539062 456.191406 708.34375 475.660156 664.550781 475.65625 C 640.234375 475.652344 617.574219 469.667969 598.070312 457.808594 C 578.570312 445.945312 562.191406 428.207031 550.484375 404.539062 C 538.25 379.800781 532.421875 351.183594 532.421875 320.914062 C 532.394531 241.097656 573.019531 149.941406 642.214844 89.296875 C 687.421875 49.644531 736.609375 30.171875 780.40625 30.175781 C 804.722656 30.179688 827.378906 36.164062 846.882812 48.023438 C 866.382812 59.886719 882.761719 77.625 894.476562 101.300781 C 906.710938 126.035156 912.535156 154.652344 912.535156 184.917969 C 912.558594 264.734375 871.929688 355.886719 802.746094 416.539062 L 804.238281 418.238281 L 805.726562 419.933594 C 875.898438 358.351562 917.027344 266.242188 917.050781 184.917969 C 917.050781 154.078125 911.121094 124.765625 898.527344 99.292969 C 886.476562 74.921875 869.492188 56.476562 849.230469 44.160156 C 828.96875 31.839844 805.460938 25.65625 780.40625 25.65625 C 735.257812 25.664062 685.105469 45.667969 639.230469 85.898438 C 569.050781 147.476562 527.925781 239.589844 527.902344 320.914062 C 527.902344 351.757812 533.835938 381.070312 546.4375 406.542969 C 558.480469 430.910156 575.460938 449.355469 595.722656 461.671875 C 615.984375 473.992188 639.492188 480.175781 664.550781 480.175781 C 709.695312 480.167969 759.851562 460.164062 805.726562 419.933594 L 804.238281 418.238281 "/><path style=" stroke:none;fill-rule:nonzero;fill:#f04624;fill-opacity:1;" d="M 829.109375 407.042969 L 827.460938 405.492188 C 779.671875 456.367188 723.191406 482.132812 672.371094 482.125 C 628.574219 482.101562 588.964844 463.117188 562.105469 424.324219 C 540.820312 393.570312 530.574219 354.578125 530.574219 312.792969 C 530.5625 240.644531 561.15625 160.289062 617.5 100.34375 C 665.289062 49.46875 721.765625 23.699219 772.585938 23.707031 C 816.375 23.734375 855.980469 42.714844 882.855469 81.511719 C 904.136719 112.265625 914.378906 151.253906 914.378906 193.039062 C 914.390625 265.1875 883.792969 345.539062 827.460938 405.492188 L 829.109375 407.042969 L 830.753906 408.589844 C 887.886719 347.742188 918.882812 266.445312 918.894531 193.039062 C 918.894531 150.527344 908.484375 110.621094 886.574219 78.9375 C 858.929688 38.945312 817.683594 19.160156 772.585938 19.1875 C 720.222656 19.199219 662.679688 45.652344 614.207031 97.246094 C 557.0625 158.085938 526.070312 239.386719 526.058594 312.792969 C 526.058594 355.304688 536.472656 395.214844 558.386719 426.894531 C 586.019531 466.886719 627.265625 486.671875 672.371094 486.644531 C 724.730469 486.636719 782.277344 460.183594 830.753906 408.589844 L 829.109375 407.042969 "/><path style=" stroke:none;fill-rule:nonzero;fill:#f04624;fill-opacity:1;" d="M 853.65625 392.898438 L 851.863281 391.515625 C 803.355469 454.457031 739.464844 487.628906 680.929688 487.617188 C 641.945312 487.605469 605.320312 472.984375 576.78125 442.546875 C 543.796875 407.359375 527.457031 357.074219 527.457031 302.714844 C 527.453125 239.421875 549.621094 170.703125 593.09375 114.316406 C 641.601562 51.375 705.492188 18.203125 764.027344 18.214844 C 803.007812 18.230469 839.628906 32.839844 868.179688 63.285156 C 901.164062 98.472656 917.5 148.757812 917.5 203.121094 C 917.503906 266.410156 895.332031 335.125 851.863281 391.515625 L 853.65625 392.898438 L 855.445312 394.277344 C 899.53125 337.054688 922.011719 267.457031 922.015625 203.121094 C 922.015625 147.878906 905.429688 96.441406 871.476562 60.195312 C 842.109375 28.839844 804.132812 13.679688 764.027344 13.695312 C 703.761719 13.710938 638.71875 47.726562 589.515625 111.558594 C 545.417969 168.773438 522.941406 238.371094 522.9375 302.714844 C 522.9375 357.953125 539.527344 409.394531 573.484375 445.640625 C 602.84375 476.988281 640.816406 492.148438 680.929688 492.136719 C 741.195312 492.121094 806.242188 458.109375 855.445312 394.277344 L 853.65625 392.898438 "/><path style=" stroke:none;fill-rule:nonzero;fill:#f04624;fill-opacity:1;" d="M 877.488281 375.867188 L 875.566406 374.671875 C 828.46875 450.269531 757.042969 492.082031 689.867188 492.0625 C 655.824219 492.054688 622.851562 481.367188 594.464844 458.855469 C 547.300781 421.460938 522.796875 359.199219 522.796875 291.539062 C 522.796875 238.117188 538.074219 181.40625 569.394531 131.164062 C 616.492188 55.5625 687.914062 13.75 755.082031 13.769531 C 789.125 13.773438 822.09375 24.460938 850.5 46.980469 C 897.65625 84.371094 922.15625 146.636719 922.15625 214.300781 C 922.15625 267.714844 906.875 324.425781 875.566406 374.671875 L 877.488281 375.867188 L 879.40625 377.0625 C 911.164062 326.074219 926.675781 268.574219 926.675781 214.300781 C 926.675781 145.585938 901.808594 81.929688 853.308594 43.4375 C 824.113281 20.28125 790.070312 9.242188 755.082031 9.25 C 686.007812 9.265625 613.335938 52.097656 565.558594 128.773438 C 533.78125 179.757812 518.28125 237.261719 518.28125 291.539062 C 518.28125 360.246094 543.148438 423.90625 591.652344 462.394531 C 620.832031 485.546875 654.878906 496.589844 689.867188 496.582031 C 758.949219 496.5625 831.621094 453.738281 879.40625 377.066406 L 877.488281 375.871094 "/><path style=" stroke:none;fill-rule:nonzero;fill:#f04624;fill-opacity:1;" d="M 900.203125 356.0625 L 898.171875 355.066406 C 854.855469 443.613281 775.773438 495.464844 698.785156 495.445312 C 669.964844 495.441406 641.421875 488.203125 615.042969 472.894531 C 583.332031 454.488281 558.699219 426.707031 541.972656 393.335938 C 525.25 359.964844 516.449219 321.007812 516.449219 280.371094 C 516.449219 237.503906 526.234375 192.773438 546.789062 150.769531 C 590.101562 62.222656 669.183594 10.367188 746.175781 10.386719 C 774.988281 10.390625 803.527344 17.628906 829.917969 32.9375 C 861.628906 51.34375 886.261719 79.125 902.984375 112.5 C 919.710938 145.867188 928.507812 184.824219 928.507812 225.460938 C 928.507812 268.328125 918.714844 313.054688 898.171875 355.066406 L 900.203125 356.0625 L 902.230469 357.054688 C 923.085938 314.410156 933.023438 269.015625 933.023438 225.460938 C 933.023438 184.171875 924.09375 144.539062 907.027344 110.476562 C 889.960938 76.414062 864.738281 47.917969 832.1875 29.027344 C 805.109375 13.3125 775.746094 5.867188 746.175781 5.867188 C 667.117188 5.886719 586.683594 58.9375 542.730469 148.78125 C 521.867188 191.417969 511.929688 236.816406 511.929688 280.371094 C 511.929688 321.660156 520.863281 361.292969 537.929688 395.359375 C 555 429.417969 580.226562 457.914062 612.773438 476.804688 C 639.84375 492.515625 669.207031 499.964844 698.785156 499.964844 C 777.839844 499.945312 858.273438 446.894531 902.230469 357.054688 L 900.203125 356.0625 "/><path style=" stroke:none;fill-rule:nonzero;fill:#f04624;fill-opacity:1;" d="M 921.390625 333.632812 L 919.265625 332.859375 C 882.347656 434.324219 795.5 497.808594 707.167969 497.789062 C 684.066406 497.789062 660.855469 493.457031 638.367188 484.332031 C 597.789062 467.867188 565.316406 438.128906 542.960938 400.605469 C 520.601562 363.082031 508.382812 317.777344 508.382812 270.304688 C 508.382812 238.269531 513.941406 205.253906 525.691406 172.976562 C 562.609375 71.507812 649.460938 8.023438 737.789062 8.039062 C 760.886719 8.042969 784.09375 12.371094 806.59375 21.5 C 847.167969 37.96875 879.640625 67.703125 902 105.226562 C 924.351562 142.746094 936.570312 188.050781 936.570312 235.527344 C 936.570312 267.558594 931.007812 300.578125 919.265625 332.859375 L 923.515625 334.40625 C 935.4375 301.621094 941.089844 268.082031 941.089844 235.527344 C 941.089844 187.277344 928.679688 141.1875 905.882812 102.914062 C 883.085938 64.640625 849.859375 34.179688 808.296875 17.3125 C 785.253906 7.960938 761.449219 3.519531 737.789062 3.523438 C 647.246094 3.542969 558.925781 68.417969 521.445312 171.429688 C 509.511719 204.207031 503.867188 237.75 503.867188 270.304688 C 503.867188 318.550781 516.269531 364.640625 539.074219 402.917969 C 561.875 441.191406 595.097656 471.65625 636.664062 488.519531 C 659.699219 497.867188 683.503906 502.308594 707.167969 502.308594 C 797.710938 502.289062 886.03125 437.414062 923.515625 334.40625 L 921.390625 333.632812 "/><path style=" stroke:none;fill-rule:nonzero;fill:#f04624;fill-opacity:1;" d="M 940.65625 308.792969 L 938.457031 308.257812 C 910.761719 422.265625 816.050781 499.214844 714.429688 499.199219 C 697.796875 499.199219 680.976562 497.136719 664.226562 492.851562 C 614.378906 480.085938 573.035156 449.582031 544.105469 408.667969 C 515.1875 367.753906 498.714844 316.433594 498.714844 262.144531 C 498.71875 240.925781 501.230469 219.253906 506.5 197.578125 C 534.195312 83.570312 628.90625 6.613281 730.53125 6.636719 C 747.15625 6.636719 763.972656 8.6875 780.734375 12.984375 C 830.578125 25.75 871.921875 56.25 900.847656 97.164062 C 929.773438 138.078125 946.238281 189.398438 946.238281 243.6875 C 946.238281 264.902344 943.722656 286.570312 938.457031 308.257812 L 940.65625 308.792969 L 942.851562 309.324219 C 948.199219 287.285156 950.757812 265.257812 950.757812 243.6875 C 950.757812 188.484375 934.019531 136.265625 904.542969 94.554688 C 875.066406 52.851562 832.808594 21.648438 781.859375 8.605469 C 764.726562 4.214844 747.527344 2.113281 730.53125 2.113281 C 626.570312 2.136719 530.246094 80.675781 502.109375 196.511719 C 496.75 218.539062 494.195312 240.570312 494.199219 262.144531 C 494.199219 317.347656 510.9375 369.566406 540.417969 411.277344 C 569.894531 452.984375 612.152344 484.183594 663.105469 497.230469 C 680.226562 501.609375 697.425781 503.71875 714.429688 503.71875 C 818.386719 503.699219 914.710938 425.160156 942.851562 309.324219 L 940.65625 308.792969 "/><path style=" stroke:none;fill-rule:nonzero;fill:#f04624;fill-opacity:1;" d="M 957.59375 281.785156 L 955.347656 281.511719 C 939.898438 407.316406 837.25 499.859375 719.832031 499.84375 C 710.753906 499.84375 701.589844 499.292969 692.367188 498.164062 C 633.195312 490.894531 582.042969 461.03125 545.640625 417.675781 C 509.25 374.320312 487.640625 317.480469 487.640625 256.328125 C 487.644531 245.769531 488.285156 235.085938 489.613281 224.328125 C 505.058594 98.519531 607.707031 5.976562 725.125 5.988281 C 734.199219 5.988281 743.359375 6.539062 752.59375 7.675781 C 811.765625 14.941406 862.917969 44.800781 899.3125 88.160156 C 935.707031 131.515625 957.308594 188.351562 957.308594 249.511719 C 957.308594 260.0625 956.667969 270.742188 955.347656 281.511719 L 957.59375 281.785156 L 959.835938 282.058594 C 961.175781 271.113281 961.832031 260.246094 961.828125 249.511719 C 961.828125 187.285156 939.851562 129.421875 902.777344 85.253906 C 865.707031 41.082031 813.507812 10.597656 753.144531 3.1875 C 743.730469 2.03125 734.382812 1.46875 725.125 1.46875 C 605.273438 1.480469 500.832031 95.820312 485.125 223.773438 C 483.773438 234.71875 483.121094 245.585938 483.125 256.328125 C 483.125 318.550781 505.105469 376.410156 542.183594 420.582031 C 579.253906 464.75 631.457031 495.238281 691.820312 502.644531 C 701.222656 503.796875 710.574219 504.363281 719.832031 504.363281 C 839.6875 504.351562 944.125 410.011719 959.835938 282.0625 L 957.59375 281.785156 "/><path style=" stroke:none;fill-rule:nonzero;fill:#f04624;fill-opacity:1;" d="M 971.828125 252.917969 L 969.566406 252.917969 C 969.5625 321.15625 941.914062 382.910156 897.195312 427.632812 C 852.476562 472.351562 790.71875 500 722.480469 500 C 654.242188 500 592.484375 472.351562 547.765625 427.632812 C 503.046875 382.910156 475.398438 321.15625 475.394531 252.917969 C 475.398438 184.679688 503.046875 122.921875 547.765625 78.203125 C 592.484375 33.484375 654.242188 5.832031 722.480469 5.832031 C 790.71875 5.832031 852.476562 33.484375 897.195312 78.203125 C 941.914062 122.921875 969.5625 184.679688 969.566406 252.917969 L 974.085938 252.917969 C 974.085938 113.960938 861.4375 1.316406 722.480469 1.3125 C 583.523438 1.316406 470.878906 113.960938 470.878906 252.917969 C 470.878906 391.875 583.523438 504.523438 722.480469 504.523438 C 861.4375 504.523438 974.085938 391.875 974.085938 252.917969 L 971.828125 252.917969 "/><g style="fill:#ffffff;fill-opacity:1;"><g transform="translate(89.401878, 656.391965)"><path style="stroke:none" d="M 16.640625 -7.546875 C 18.710938 -6.109375 21.425781 -5.390625 24.78125 -5.390625 C 32.445312 -5.390625 36.28125 -8.257812 36.28125 -14 C 36.28125 -17.351562 33.523438 -19.910156 28.015625 -21.671875 C 25.703125 -22.460938 23.226562 -23.179688 20.59375 -23.828125 C 17.875 -24.460938 15.359375 -25.300781 13.046875 -26.34375 C 10.335938 -27.613281 8.300781 -29.207031 6.9375 -31.125 C 5.582031 -33.039062 4.90625 -35.316406 4.90625 -37.953125 C 4.90625 -43.222656 6.742188 -47.171875 10.421875 -49.796875 C 14.085938 -52.515625 18.472656 -53.875 23.578125 -53.875 C 28.691406 -53.875 32.925781 -52.835938 36.28125 -50.765625 C 39.625 -48.679688 41.894531 -44.96875 43.09375 -39.625 L 34.125 -39.625 C 33.164062 -42.582031 31.769531 -44.539062 29.9375 -45.5 C 28.175781 -46.457031 25.976562 -46.9375 23.34375 -46.9375 C 20.707031 -46.9375 18.472656 -46.375 16.640625 -45.25 C 14.722656 -44.050781 13.765625 -42.296875 13.765625 -39.984375 C 13.765625 -37.585938 14.5625 -35.832031 16.15625 -34.71875 C 17.675781 -33.675781 19.59375 -32.757812 21.90625 -31.96875 C 24.21875 -31.25 26.734375 -30.609375 29.453125 -30.046875 C 32.085938 -29.410156 34.601562 -28.535156 37 -27.421875 C 42.425781 -24.859375 45.140625 -20.742188 45.140625 -15.078125 C 45.140625 -9.410156 43.101562 -5.222656 39.03125 -2.515625 C 36.957031 -1.160156 34.679688 -0.125 32.203125 0.59375 C 29.804688 1.238281 27.171875 1.5625 24.296875 1.5625 C 12.085938 1.5625 5.066406 -3.863281 3.234375 -14.71875 L 12.09375 -14.71875 C 12.96875 -11.289062 14.484375 -8.898438 16.640625 -7.546875 Z M 16.640625 -7.546875 "/></g></g><g style="fill:#ffffff;fill-opacity:1;"><g transform="translate(197.022532, 656.391965)"><path style="stroke:none" d="M 17.359375 29.9375 L 8.984375 29.9375 L 8.984375 -52.671875 L 17.359375 -52.671875 L 17.359375 -43.703125 C 17.835938 -44.335938 18.359375 -44.9375 18.921875 -45.5 C 23.867188 -51.082031 29.972656 -53.875 37.234375 -53.875 C 44.492188 -53.875 50.640625 -51.082031 55.671875 -45.5 C 60.460938 -40.070312 62.859375 -33.6875 62.859375 -26.34375 C 62.859375 -19 60.460938 -12.613281 55.671875 -7.1875 C 50.640625 -1.59375 44.492188 1.203125 37.234375 1.203125 C 29.972656 1.203125 23.867188 -1.59375 18.921875 -7.1875 C 18.359375 -7.738281 17.835938 -8.335938 17.359375 -8.984375 Z M 54.46875 -26.34375 C 54.46875 -31.445312 52.710938 -35.914062 49.203125 -39.75 C 45.609375 -43.582031 41.179688 -45.5 35.921875 -45.5 C 30.648438 -45.5 26.257812 -43.582031 22.75 -39.75 C 19.15625 -35.914062 17.359375 -31.445312 17.359375 -26.34375 C 17.359375 -21.226562 19.15625 -16.753906 22.75 -12.921875 C 26.257812 -9.097656 30.648438 -7.1875 35.921875 -7.1875 C 41.179688 -7.1875 45.609375 -9.097656 49.203125 -12.921875 C 52.710938 -16.753906 54.46875 -21.226562 54.46875 -26.34375 Z M 54.46875 -26.34375 "/></g></g><g style="fill:#ffffff;fill-opacity:1;"><g transform="translate(324.753857, 656.391965)"><path style="stroke:none" d="M 36.03125 -41.78125 C 34.113281 -43.539062 32.039062 -44.421875 29.8125 -44.421875 C 27.65625 -44.421875 25.816406 -43.820312 24.296875 -42.625 C 22.703125 -41.34375 21.390625 -39.828125 20.359375 -38.078125 C 18.359375 -34.554688 17.359375 -30.644531 17.359375 -26.34375 L 17.359375 0 L 8.984375 0 L 8.984375 -52.671875 L 17.359375 -52.671875 L 17.359375 -41.78125 L 17.71875 -43.9375 C 20.507812 -50.476562 24.859375 -53.75 30.765625 -53.75 C 32.597656 -53.75 34.351562 -53.390625 36.03125 -52.671875 Z M 36.03125 -41.78125 "/></g></g><g style="fill:#ffffff;fill-opacity:1;"><g transform="translate(421.481224, 656.391965)"><path style="stroke:none" d="M 17.484375 -70.875 C 18.515625 -69.832031 19.03125 -68.59375 19.03125 -67.15625 C 19.03125 -65.644531 18.515625 -64.367188 17.484375 -63.328125 C 16.441406 -62.296875 15.203125 -61.78125 13.765625 -61.78125 C 12.253906 -61.78125 10.976562 -62.296875 9.9375 -63.328125 C 8.894531 -64.367188 8.375 -65.644531 8.375 -67.15625 C 8.375 -68.59375 8.894531 -69.832031 9.9375 -70.875 C 10.976562 -71.914062 12.253906 -72.4375 13.765625 -72.4375 C 15.203125 -72.4375 16.441406 -71.914062 17.484375 -70.875 Z M 17.953125 0 L 9.578125 0 L 9.578125 -52.671875 L 17.953125 -52.671875 Z M 17.953125 0 "/></g></g><g style="fill:#ffffff;fill-opacity:1;"><g transform="translate(508.392673, 656.391965)"><path style="stroke:none" d="M 2.390625 -44.890625 L 2.390625 -52.671875 L 15.5625 -52.671875 L 15.5625 -73.140625 L 23.9375 -73.140625 L 23.9375 -52.671875 L 37 -52.671875 L 37 -44.890625 L 23.9375 -44.890625 L 23.9375 0 L 15.5625 0 L 15.5625 -44.890625 Z M 2.390625 -44.890625 "/></g></g><g style="fill:#ffffff;fill-opacity:1;"><g transform="translate(607.274757, 656.391965)"><path style="stroke:none" d="M 1.203125 0 L 35.671875 -44.890625 L 3.234375 -44.890625 L 3.234375 -52.671875 L 51.71875 -52.671875 L 17.234375 -7.78125 L 53.28125 -7.78125 L 53.28125 0 Z M 1.203125 0 "/></g></g><g style="fill:#ffffff;fill-opacity:1;"><g transform="translate(721.23986, 656.391965)"><path style="stroke:none" d="M 75.78125 -0.234375 L 75.78125 -33.15625 C 75.78125 -38.582031 74.066406 -42.414062 70.640625 -44.65625 C 69.441406 -45.375 67.601562 -45.734375 65.125 -45.734375 C 62.65625 -45.734375 60.34375 -45.015625 58.1875 -43.578125 C 56.03125 -42.140625 54.3125 -40.304688 53.03125 -38.078125 C 52.550781 -37.191406 52.113281 -36.234375 51.71875 -35.203125 C 51.71875 -34.554688 51.71875 -33.875 51.71875 -33.15625 L 51.71875 -0.234375 L 43.34375 -0.234375 L 43.34375 -33.15625 C 43.34375 -38.582031 41.625 -42.414062 38.1875 -44.65625 C 36.988281 -45.375 35.15625 -45.734375 32.6875 -45.734375 C 30.207031 -45.734375 27.890625 -45.015625 25.734375 -43.578125 C 23.578125 -42.140625 21.863281 -40.304688 20.59375 -38.078125 C 18.914062 -35.117188 17.835938 -31.484375 17.359375 -27.171875 L 17.359375 -0.234375 L 8.984375 -0.234375 L 8.984375 -52.921875 L 17.359375 -52.921875 L 17.359375 -44.53125 C 18.953125 -47.25 20.945312 -49.445312 23.34375 -51.125 C 26.0625 -53.113281 29.253906 -54.109375 32.921875 -54.109375 C 36.597656 -54.109375 39.550781 -53.550781 41.78125 -52.4375 C 44.019531 -51.238281 45.894531 -49.679688 47.40625 -47.765625 C 48.207031 -46.648438 48.925781 -45.414062 49.5625 -44.0625 C 51.15625 -46.925781 53.226562 -49.28125 55.78125 -51.125 C 58.5 -53.113281 61.691406 -54.109375 65.359375 -54.109375 C 69.035156 -54.109375 71.988281 -53.550781 74.21875 -52.4375 C 76.457031 -51.238281 78.335938 -49.679688 79.859375 -47.765625 C 82.722656 -44.015625 84.15625 -39.144531 84.15625 -33.15625 L 84.15625 -0.234375 Z M 75.78125 -0.234375 "/></g></g><g style="fill:#ffffff;fill-opacity:1;"><g transform="translate(872.074536, 656.391965)"><path style="stroke:none" d="M 50.875 -26.34375 C 50.875 -31.445312 49.117188 -35.914062 45.609375 -39.75 C 42.015625 -43.582031 37.585938 -45.5 32.328125 -45.5 C 27.054688 -45.5 22.664062 -43.582031 19.15625 -39.75 C 15.5625 -35.914062 13.765625 -31.445312 13.765625 -26.34375 C 13.765625 -21.226562 15.5625 -16.753906 19.15625 -12.921875 C 22.664062 -9.097656 27.054688 -7.1875 32.328125 -7.1875 C 37.585938 -7.1875 42.015625 -9.097656 45.609375 -12.921875 C 49.117188 -16.753906 50.875 -21.226562 50.875 -26.34375 Z M 59.265625 0 L 50.875 0 L 50.875 -8.984375 C 50.394531 -8.335938 49.914062 -7.738281 49.4375 -7.1875 C 44.414062 -1.59375 38.269531 1.203125 31 1.203125 C 23.738281 1.203125 17.632812 -1.59375 12.6875 -7.1875 C 7.820312 -12.613281 5.390625 -19 5.390625 -26.34375 C 5.390625 -33.6875 7.820312 -40.070312 12.6875 -45.5 C 17.632812 -51.082031 23.738281 -53.875 31 -53.875 C 38.269531 -53.875 44.414062 -51.082031 49.4375 -45.5 C 49.914062 -44.9375 50.394531 -44.335938 50.875 -43.703125 L 50.875 -52.671875 L 59.265625 -52.671875 Z M 59.265625 0 "/></g></g><g style="fill:#ffffff;fill-opacity:1;"><g transform="translate(999.805898, 656.391965)"><path style="stroke:none" d="M 2.390625 -44.890625 L 2.390625 -52.671875 L 15.5625 -52.671875 L 15.5625 -73.140625 L 23.9375 -73.140625 L 23.9375 -52.671875 L 37 -52.671875 L 37 -44.890625 L 23.9375 -44.890625 L 23.9375 0 L 15.5625 0 L 15.5625 -44.890625 Z M 2.390625 -44.890625 "/></g></g><g style="fill:#ffffff;fill-opacity:1;"><g transform="translate(1098.687937, 656.391965)"><path style="stroke:none" d="M 2.390625 -44.890625 L 2.390625 -52.671875 L 15.5625 -52.671875 L 15.5625 -73.140625 L 23.9375 -73.140625 L 23.9375 -52.671875 L 37 -52.671875 L 37 -44.890625 L 23.9375 -44.890625 L 23.9375 0 L 15.5625 0 L 15.5625 -44.890625 Z M 2.390625 -44.890625 "/></g></g><g style="fill:#ffffff;fill-opacity:1;"><g transform="translate(1197.570067, 656.391965)"><path style="stroke:none" d="M 60.453125 -27.53125 L 60.453125 -23.109375 L 14.125 -23.109375 C 14.925781 -18.554688 17.125 -14.84375 20.71875 -11.96875 C 24.382812 -9.019531 28.453125 -7.546875 32.921875 -7.546875 C 35.953125 -7.546875 38.863281 -8.265625 41.65625 -9.703125 C 44.375 -11.054688 46.648438 -12.96875 48.484375 -15.4375 L 58.0625 -15.4375 C 55.832031 -10.414062 52.476562 -6.46875 48 -3.59375 C 43.457031 -0.632812 38.867188 0.84375 34.234375 0.84375 C 29.523438 0.84375 25.535156 0.125 22.265625 -1.3125 C 18.910156 -2.75 16 -4.707031 13.53125 -7.1875 C 8.101562 -12.445312 5.390625 -18.910156 5.390625 -26.578125 C 5.390625 -34.160156 8.101562 -40.664062 13.53125 -46.09375 C 18.875 -51.4375 25.335938 -54.109375 32.921875 -54.109375 C 40.265625 -54.109375 46.691406 -51.515625 52.203125 -46.328125 C 57.703125 -41.066406 60.453125 -34.800781 60.453125 -27.53125 Z M 51.59375 -30.28125 C 50.632812 -34.757812 48.398438 -38.472656 44.890625 -41.421875 C 41.378906 -44.296875 37.390625 -45.734375 32.921875 -45.734375 C 26.054688 -45.734375 20.671875 -42.660156 16.765625 -36.515625 C 15.566406 -34.597656 14.726562 -32.519531 14.25 -30.28125 Z M 51.59375 -30.28125 "/></g></g><g style="fill:#ffffff;fill-opacity:1;"><g transform="translate(1322.308709, 656.391965)"><path style="stroke:none" d="M 36.03125 -41.78125 C 34.113281 -43.539062 32.039062 -44.421875 29.8125 -44.421875 C 27.65625 -44.421875 25.816406 -43.820312 24.296875 -42.625 C 22.703125 -41.34375 21.390625 -39.828125 20.359375 -38.078125 C 18.359375 -34.554688 17.359375 -30.644531 17.359375 -26.34375 L 17.359375 0 L 8.984375 0 L 8.984375 -52.671875 L 17.359375 -52.671875 L 17.359375 -41.78125 L 17.71875 -43.9375 C 20.507812 -50.476562 24.859375 -53.75 30.765625 -53.75 C 32.597656 -53.75 34.351562 -53.390625 36.03125 -52.671875 Z M 36.03125 -41.78125 "/></g></g></g></svg>