<svg xmlns="http://www.w3.org/2000/svg" xmlns:xlink="http://www.w3.org/1999/xlink" width="1024" zoomAndPan="magnify" viewBox="0 0 768 767.999994" height="1024" preserveAspectRatio="xMidYMid meet" version="1.2"><defs><clipPath id="9579a7954e"><path d="M 187 520 L 325 520 L 325 725.21875 L 187 725.21875 Z M 187 520 "/></clipPath><clipPath id="e3d6ce9851"><path d="M 443 520 L 581 520 L 581 725.21875 L 443 725.21875 Z M 443 520 "/></clipPath><clipPath id="b860b6e99f"><path d="M 324 42.71875 L 444 42.71875 L 444 94 L 324 94 Z M 324 42.71875 "/></clipPath></defs><g id="41d0151427"><path style=" stroke:none;fill-rule:nonzero;fill:#bd2e03;fill-opacity:1;" d="M 754.082031 537.382812 L 13.839844 537.382812 C 12.027344 537.394531 10.28125 537.054688 8.605469 536.359375 C 6.929688 535.667969 5.457031 534.671875 4.183594 533.378906 C 2.902344 532.097656 1.917969 530.621094 1.226562 528.949219 C 0.53125 527.273438 0.183594 525.53125 0.179688 523.722656 L 0.179688 90.503906 C 0.171875 88.679688 0.519531 86.925781 1.222656 85.242188 C 1.925781 83.554688 2.929688 82.074219 4.234375 80.796875 C 5.511719 79.53125 6.980469 78.558594 8.644531 77.871094 C 10.308594 77.1875 12.042969 76.84375 13.839844 76.84375 L 754.082031 76.84375 C 754.980469 76.839844 755.871094 76.925781 756.753906 77.097656 C 757.636719 77.269531 758.492188 77.527344 759.324219 77.871094 C 760.15625 78.210938 760.945312 78.632812 761.695312 79.128906 C 762.445312 79.628906 763.136719 80.195312 763.773438 80.828125 C 764.410156 81.460938 764.980469 82.152344 765.480469 82.898438 C 765.980469 83.648438 766.402344 84.4375 766.746094 85.265625 C 767.09375 86.097656 767.351562 86.953125 767.527344 87.832031 C 767.703125 88.714844 767.792969 89.605469 767.792969 90.503906 L 767.792969 523.722656 C 767.78125 525.519531 767.433594 527.25 766.75 528.910156 C 766.066406 530.570312 765.097656 532.046875 763.839844 533.328125 C 762.550781 534.632812 761.0625 535.636719 759.371094 536.339844 C 757.675781 537.042969 755.914062 537.390625 754.082031 537.382812 Z M 17.242188 520.320312 L 750.730469 520.320312 L 750.730469 93.90625 L 17.242188 93.90625 Z M 17.242188 520.320312 "/><path style=" stroke:none;fill-rule:nonzero;fill:#bd2e03;fill-opacity:1;" d="M 719.957031 503.058594 L 47.964844 503.058594 C 46.15625 503.054688 44.414062 502.707031 42.738281 502.011719 C 41.066406 501.320312 39.589844 500.332031 38.308594 499.054688 C 37.019531 497.777344 36.027344 496.304688 35.335938 494.628906 C 34.640625 492.953125 34.296875 491.210938 34.304688 489.398438 L 34.304688 124.628906 C 34.304688 122.804688 34.65625 121.054688 35.359375 119.371094 C 36.0625 117.6875 37.0625 116.207031 38.359375 114.921875 C 39.625 113.636719 41.09375 112.648438 42.757812 111.957031 C 44.425781 111.261719 46.160156 110.917969 47.964844 110.921875 L 719.957031 110.921875 C 721.84375 110.890625 723.660156 111.242188 725.402344 111.972656 C 727.144531 112.703125 728.664062 113.753906 729.964844 115.125 C 731.21875 116.386719 732.179688 117.839844 732.847656 119.488281 C 733.515625 121.136719 733.839844 122.851562 733.816406 124.628906 L 733.816406 489.597656 C 733.804688 490.496094 733.703125 491.382812 733.515625 492.257812 C 733.328125 493.136719 733.058594 493.984375 732.703125 494.808594 C 732.347656 495.632812 731.914062 496.414062 731.40625 497.152344 C 730.894531 497.890625 730.320312 498.574219 729.675781 499.199219 C 729.03125 499.824219 728.332031 500.378906 727.582031 500.867188 C 726.828125 501.355469 726.035156 501.761719 725.199219 502.09375 C 724.367188 502.425781 723.507812 502.671875 722.625 502.835938 C 721.742188 502.996094 720.855469 503.070312 719.957031 503.058594 Z M 51.367188 486.195312 L 716.855469 486.195312 L 716.855469 127.78125 L 51.367188 127.78125 Z M 51.367188 486.195312 "/><g clip-rule="nonzero" clip-path="url(#9579a7954e)"><path style=" stroke:none;fill-rule:nonzero;fill:#bd2e03;fill-opacity:1;" d="M 247.511719 725.019531 L 196.324219 725.019531 C 195.984375 725.019531 195.644531 724.996094 195.304688 724.953125 C 194.964844 724.910156 194.628906 724.847656 194.300781 724.765625 C 193.96875 724.683594 193.644531 724.582031 193.324219 724.460938 C 193.003906 724.339844 192.695312 724.199219 192.394531 724.042969 C 192.089844 723.882812 191.800781 723.707031 191.519531 723.511719 C 191.238281 723.320312 190.96875 723.109375 190.710938 722.886719 C 190.457031 722.660156 190.214844 722.417969 189.988281 722.164062 C 189.761719 721.910156 189.546875 721.644531 189.351562 721.363281 C 189.15625 721.085938 188.980469 720.792969 188.820312 720.492188 C 188.660156 720.191406 188.515625 719.882812 188.390625 719.566406 C 188.269531 719.246094 188.164062 718.921875 188.078125 718.59375 C 187.996094 718.261719 187.929688 717.925781 187.886719 717.589844 C 187.839844 717.25 187.816406 716.910156 187.8125 716.570312 C 187.808594 716.230469 187.824219 715.886719 187.859375 715.550781 C 187.894531 715.210938 187.953125 714.875 188.03125 714.542969 C 188.105469 714.210938 188.203125 713.882812 188.316406 713.5625 L 256.566406 525.925781 C 256.871094 525.105469 257.292969 524.351562 257.824219 523.660156 C 258.359375 522.972656 258.984375 522.375 259.699219 521.875 C 260.414062 521.375 261.1875 520.992188 262.019531 520.726562 C 262.847656 520.460938 263.699219 520.324219 264.574219 520.320312 L 315.761719 520.320312 C 316.101562 520.320312 316.445312 520.339844 316.785156 520.378906 C 317.125 520.417969 317.460938 520.480469 317.792969 520.558594 C 318.125 520.640625 318.453125 520.738281 318.773438 520.859375 C 319.09375 520.980469 319.40625 521.117188 319.707031 521.277344 C 320.011719 521.433594 320.304688 521.609375 320.589844 521.800781 C 320.871094 521.996094 321.140625 522.203125 321.398438 522.429688 C 321.65625 522.65625 321.898438 522.894531 322.125 523.152344 C 322.355469 523.40625 322.566406 523.671875 322.761719 523.953125 C 322.957031 524.234375 323.136719 524.527344 323.296875 524.828125 C 323.457031 525.128906 323.601562 525.441406 323.722656 525.761719 C 323.847656 526.078125 323.949219 526.40625 324.035156 526.734375 C 324.117188 527.066406 324.183594 527.402344 324.226562 527.742188 C 324.269531 528.082031 324.292969 528.421875 324.296875 528.765625 C 324.296875 529.105469 324.28125 529.449219 324.242188 529.789062 C 324.203125 530.128906 324.144531 530.464844 324.0625 530.796875 C 323.984375 531.128906 323.886719 531.457031 323.765625 531.777344 L 255.367188 719.414062 C 255.074219 720.226562 254.664062 720.972656 254.144531 721.660156 C 253.625 722.347656 253.011719 722.9375 252.3125 723.441406 C 251.609375 723.941406 250.847656 724.324219 250.03125 724.59375 C 249.210938 724.863281 248.371094 725.003906 247.511719 725.019531 Z M 208.53125 708.207031 L 241.558594 708.207031 L 303.601562 537.632812 L 270.378906 537.632812 Z M 208.53125 708.207031 "/></g><g clip-rule="nonzero" clip-path="url(#e3d6ce9851)"><path style=" stroke:none;fill-rule:nonzero;fill:#bd2e03;fill-opacity:1;" d="M 571.597656 725.019531 L 520.5625 725.019531 C 519.6875 725.015625 518.835938 724.878906 518.003906 724.613281 C 517.171875 724.347656 516.402344 723.964844 515.6875 723.464844 C 514.972656 722.964844 514.347656 722.367188 513.8125 721.679688 C 513.277344 720.988281 512.859375 720.234375 512.554688 719.414062 L 444.207031 531.777344 C 444.089844 531.457031 443.992188 531.128906 443.917969 530.796875 C 443.839844 530.464844 443.785156 530.128906 443.746094 529.789062 C 443.710938 529.453125 443.695312 529.109375 443.699219 528.769531 C 443.703125 528.429688 443.726562 528.089844 443.773438 527.75 C 443.816406 527.414062 443.882812 527.078125 443.96875 526.746094 C 444.050781 526.417969 444.15625 526.09375 444.28125 525.773438 C 444.402344 525.457031 444.546875 525.148438 444.707031 524.847656 C 444.867188 524.546875 445.046875 524.253906 445.242188 523.976562 C 445.4375 523.695312 445.648438 523.429688 445.875 523.175781 C 446.101562 522.921875 446.34375 522.679688 446.601562 522.453125 C 446.855469 522.230469 447.125 522.019531 447.40625 521.828125 C 447.6875 521.632812 447.976562 521.457031 448.28125 521.296875 C 448.582031 521.140625 448.894531 521 449.210938 520.878906 C 449.53125 520.757812 449.855469 520.65625 450.1875 520.574219 C 450.519531 520.492188 450.851562 520.429688 451.191406 520.386719 C 451.53125 520.34375 451.871094 520.320312 452.210938 520.320312 L 503.398438 520.320312 C 504.277344 520.316406 505.132812 520.449219 505.972656 520.710938 C 506.808594 520.976562 507.585938 521.363281 508.304688 521.867188 C 509.023438 522.375 509.644531 522.980469 510.175781 523.679688 C 510.703125 524.378906 511.113281 525.144531 511.40625 525.972656 L 579.605469 713.613281 C 579.839844 714.25 580 714.90625 580.074219 715.585938 C 580.152344 716.261719 580.148438 716.9375 580.0625 717.613281 C 579.972656 718.289062 579.808594 718.945312 579.558594 719.578125 C 579.3125 720.214844 578.996094 720.808594 578.605469 721.367188 C 578.210938 721.933594 577.757812 722.441406 577.242188 722.898438 C 576.722656 723.351562 576.160156 723.738281 575.550781 724.054688 C 574.941406 724.375 574.300781 724.613281 573.632812 724.777344 C 572.964844 724.941406 572.285156 725.019531 571.597656 725.019531 Z M 526.566406 707.957031 L 559.589844 707.957031 L 497.445312 537.382812 L 464.421875 537.382812 Z M 526.566406 707.957031 "/></g><path style=" stroke:none;fill-rule:nonzero;fill:#bd2e03;fill-opacity:1;" d="M 501.847656 673.832031 L 266.125 673.832031 C 265.566406 673.832031 265.011719 673.777344 264.464844 673.667969 C 263.917969 673.558594 263.386719 673.398438 262.871094 673.183594 C 262.355469 672.972656 261.863281 672.710938 261.398438 672.398438 C 260.933594 672.089844 260.503906 671.734375 260.109375 671.339844 C 259.714844 670.945312 259.363281 670.515625 259.050781 670.050781 C 258.742188 669.585938 258.480469 669.097656 258.265625 668.582031 C 258.050781 668.066406 257.890625 667.535156 257.78125 666.984375 C 257.671875 666.4375 257.617188 665.882812 257.617188 665.324219 C 257.617188 664.769531 257.671875 664.214844 257.78125 663.667969 C 257.890625 663.117188 258.050781 662.585938 258.265625 662.070312 C 258.480469 661.554688 258.742188 661.066406 259.050781 660.601562 C 259.363281 660.136719 259.714844 659.707031 260.109375 659.3125 C 260.503906 658.917969 260.933594 658.5625 261.398438 658.253906 C 261.863281 657.941406 262.355469 657.679688 262.871094 657.46875 C 263.386719 657.253906 263.917969 657.09375 264.464844 656.984375 C 265.011719 656.875 265.566406 656.820312 266.125 656.820312 L 501.847656 656.820312 C 502.40625 656.820312 502.960938 656.875 503.507812 656.984375 C 504.054688 657.09375 504.585938 657.253906 505.101562 657.46875 C 505.617188 657.679688 506.109375 657.941406 506.574219 658.253906 C 507.039062 658.5625 507.46875 658.917969 507.863281 659.3125 C 508.257812 659.707031 508.609375 660.136719 508.921875 660.601562 C 509.230469 661.066406 509.492188 661.554688 509.707031 662.070312 C 509.921875 662.585938 510.082031 663.117188 510.191406 663.667969 C 510.300781 664.214844 510.355469 664.769531 510.355469 665.324219 C 510.355469 665.882812 510.300781 666.4375 510.191406 666.984375 C 510.082031 667.535156 509.921875 668.066406 509.707031 668.582031 C 509.492188 669.097656 509.230469 669.585938 508.921875 670.050781 C 508.609375 670.515625 508.257812 670.945312 507.863281 671.339844 C 507.46875 671.734375 507.039062 672.089844 506.574219 672.398438 C 506.109375 672.710938 505.617188 672.972656 505.101562 673.183594 C 504.585938 673.398438 504.054688 673.558594 503.507812 673.667969 C 502.960938 673.777344 502.40625 673.832031 501.847656 673.832031 Z M 501.847656 673.832031 "/><g clip-rule="nonzero" clip-path="url(#b860b6e99f)"><path style=" stroke:none;fill-rule:nonzero;fill:#bd2e03;fill-opacity:1;" d="M 435.148438 93.90625 L 332.773438 93.90625 C 332.214844 93.902344 331.660156 93.847656 331.113281 93.734375 C 330.5625 93.621094 330.03125 93.457031 329.515625 93.242188 C 329 93.027344 328.507812 92.761719 328.042969 92.449219 C 327.578125 92.136719 327.152344 91.78125 326.753906 91.382812 C 326.359375 90.988281 326.007812 90.554688 325.699219 90.089844 C 325.390625 89.625 325.128906 89.132812 324.914062 88.613281 C 324.699219 88.097656 324.539062 87.5625 324.429688 87.015625 C 324.320312 86.464844 324.265625 85.910156 324.265625 85.351562 L 324.265625 56.328125 C 324.273438 54.527344 324.621094 52.792969 325.3125 51.128906 C 326.007812 49.464844 326.992188 47.996094 328.269531 46.722656 C 329.554688 45.449219 331.035156 44.464844 332.707031 43.773438 C 334.378906 43.078125 336.117188 42.730469 337.925781 42.71875 L 430.046875 42.71875 C 430.941406 42.71875 431.824219 42.808594 432.703125 42.980469 C 433.582031 43.15625 434.433594 43.414062 435.261719 43.753906 C 436.089844 44.097656 436.875 44.515625 437.617188 45.011719 C 438.363281 45.507812 439.050781 46.070312 439.6875 46.703125 C 440.320312 47.335938 440.886719 48.023438 441.386719 48.765625 C 441.882812 49.507812 442.304688 50.292969 442.652344 51.117188 C 442.996094 51.945312 443.257812 52.796875 443.433594 53.671875 C 443.613281 54.550781 443.703125 55.433594 443.703125 56.328125 L 443.703125 85.351562 C 443.703125 85.914062 443.644531 86.46875 443.53125 87.015625 C 443.421875 87.566406 443.257812 88.101562 443.039062 88.617188 C 442.824219 89.136719 442.558594 89.628906 442.246094 90.09375 C 441.933594 90.558594 441.582031 90.992188 441.183594 91.386719 C 440.789062 91.785156 440.355469 92.136719 439.890625 92.449219 C 439.425781 92.761719 438.933594 93.027344 438.414062 93.242188 C 437.898438 93.460938 437.363281 93.625 436.816406 93.734375 C 436.265625 93.847656 435.710938 93.902344 435.148438 93.90625 Z M 341.328125 76.84375 L 426.390625 76.84375 L 426.390625 59.78125 L 341.328125 59.78125 Z M 341.328125 76.84375 "/></g></g></svg>